<?xml version="1.0" encoding="utf-8" standalone="no"?>
<!DOCTYPE svg PUBLIC "-//W3C//DTD SVG 1.1//EN"
  "http://www.w3.org/Graphics/SVG/1.1/DTD/svg11.dtd">
<svg xmlns:xlink="http://www.w3.org/1999/xlink" width="460.8pt" height="345.6pt" viewBox="0 0 460.8 345.6" xmlns="http://www.w3.org/2000/svg" version="1.1">
 <metadata>
  <rdf:RDF xmlns:dc="http://purl.org/dc/elements/1.1/" xmlns:cc="http://creativecommons.org/ns#" xmlns:rdf="http://www.w3.org/1999/02/22-rdf-syntax-ns#">
   <cc:Work>
    <dc:type rdf:resource="http://purl.org/dc/dcmitype/StillImage"/>
    <dc:date>2026-04-08T11:58:05.699310</dc:date>
    <dc:format>image/svg+xml</dc:format>
    <dc:creator>
     <cc:Agent>
      <dc:title>Matplotlib v3.10.8, https://matplotlib.org/</dc:title>
     </cc:Agent>
    </dc:creator>
   </cc:Work>
  </rdf:RDF>
 </metadata>
 <defs>
  <style type="text/css">*{stroke-linejoin: round; stroke-linecap: butt}</style>
 </defs>
 <g id="figure_1">
  <g id="patch_1">
   <path d="M 0 345.6 
L 460.8 345.6 
L 460.8 0 
L 0 0 
z
" style="fill: #ffffff"/>
  </g>
  <g id="axes_1">
   <g id="patch_2">
    <path d="M 57.6 307.584 
L 414.72 307.584 
L 414.72 41.472 
L 57.6 41.472 
z
" style="fill: #ffffff"/>
   </g>
   <g id="matplotlib.axis_1">
    <g id="xtick_1">
     <g id="line2d_1">
      <defs>
       <path id="m59481a1bfc" d="M 0 0 
L 0 -2 
" style="stroke: #000000; stroke-width: 0.8"/>
      </defs>
      <g>
       <use xlink:href="#m59481a1bfc" x="78.607059" y="307.584" style="stroke: #000000; stroke-width: 0.8"/>
      </g>
     </g>
     <g id="text_1">
      <!-- 2000 -->
      <g transform="translate(69.709559 315.32275) scale(0.08 -0.08)">
       <defs>
        <path id="Helvetica-32" d="M 200 0 
Q 231 578 439 1006 
Q 647 1434 1250 1784 
L 1850 2131 
Q 2253 2366 2416 2531 
Q 2672 2791 2672 3125 
Q 2672 3516 2437 3745 
Q 2203 3975 1813 3975 
Q 1234 3975 1013 3538 
Q 894 3303 881 2888 
L 309 2888 
Q 319 3472 525 3841 
Q 891 4491 1816 4491 
Q 2584 4491 2939 4075 
Q 3294 3659 3294 3150 
Q 3294 2613 2916 2231 
Q 2697 2009 2131 1694 
L 1703 1456 
Q 1397 1288 1222 1134 
Q 909 863 828 531 
L 3272 531 
L 3272 0 
L 200 0 
z
" transform="scale(0.015625)"/>
        <path id="Helvetica-30" d="M 1731 4475 
Q 2600 4475 2988 3759 
Q 3288 3206 3288 2244 
Q 3288 1331 3016 734 
Q 2622 -122 1728 -122 
Q 922 -122 528 578 
Q 200 1163 200 2147 
Q 200 2909 397 3456 
Q 766 4475 1731 4475 
z
M 1725 391 
Q 2163 391 2422 778 
Q 2681 1166 2681 2222 
Q 2681 2984 2493 3476 
Q 2306 3969 1766 3969 
Q 1269 3969 1039 3501 
Q 809 3034 809 2125 
Q 809 1441 956 1025 
Q 1181 391 1725 391 
z
" transform="scale(0.015625)"/>
       </defs>
       <use xlink:href="#Helvetica-32"/>
       <use xlink:href="#Helvetica-30" transform="translate(55.615234 0)"/>
       <use xlink:href="#Helvetica-30" transform="translate(111.230469 0)"/>
       <use xlink:href="#Helvetica-30" transform="translate(166.845703 0)"/>
      </g>
     </g>
    </g>
    <g id="xtick_2">
     <g id="line2d_2">
      <g>
       <use xlink:href="#m59481a1bfc" x="120.621176" y="307.584" style="stroke: #000000; stroke-width: 0.8"/>
      </g>
     </g>
     <g id="text_2">
      <!-- 4000 -->
      <g transform="translate(111.723676 315.32275) scale(0.08 -0.08)">
       <defs>
        <path id="Helvetica-34" d="M 2116 1584 
L 2116 3613 
L 681 1584 
L 2116 1584 
z
M 2125 0 
L 2125 1094 
L 163 1094 
L 163 1644 
L 2213 4488 
L 2688 4488 
L 2688 1584 
L 3347 1584 
L 3347 1094 
L 2688 1094 
L 2688 0 
L 2125 0 
z
" transform="scale(0.015625)"/>
       </defs>
       <use xlink:href="#Helvetica-34"/>
       <use xlink:href="#Helvetica-30" transform="translate(55.615234 0)"/>
       <use xlink:href="#Helvetica-30" transform="translate(111.230469 0)"/>
       <use xlink:href="#Helvetica-30" transform="translate(166.845703 0)"/>
      </g>
     </g>
    </g>
    <g id="xtick_3">
     <g id="line2d_3">
      <g>
       <use xlink:href="#m59481a1bfc" x="162.635294" y="307.584" style="stroke: #000000; stroke-width: 0.8"/>
      </g>
     </g>
     <g id="text_3">
      <!-- 6000 -->
      <g transform="translate(153.737794 315.32275) scale(0.08 -0.08)">
       <defs>
        <path id="Helvetica-36" d="M 1872 4494 
Q 2622 4494 2917 4105 
Q 3213 3716 3213 3303 
L 2656 3303 
Q 2606 3569 2497 3719 
Q 2294 4000 1881 4000 
Q 1409 4000 1131 3564 
Q 853 3128 822 2316 
Q 1016 2600 1309 2741 
Q 1578 2866 1909 2866 
Q 2472 2866 2890 2506 
Q 3309 2147 3309 1434 
Q 3309 825 2912 354 
Q 2516 -116 1781 -116 
Q 1153 -116 697 361 
Q 241 838 241 1966 
Q 241 2800 444 3381 
Q 834 4494 1872 4494 
z
M 1831 384 
Q 2275 384 2495 682 
Q 2716 981 2716 1388 
Q 2716 1731 2519 2042 
Q 2322 2353 1803 2353 
Q 1441 2353 1167 2112 
Q 894 1872 894 1388 
Q 894 963 1142 673 
Q 1391 384 1831 384 
z
" transform="scale(0.015625)"/>
       </defs>
       <use xlink:href="#Helvetica-36"/>
       <use xlink:href="#Helvetica-30" transform="translate(55.615234 0)"/>
       <use xlink:href="#Helvetica-30" transform="translate(111.230469 0)"/>
       <use xlink:href="#Helvetica-30" transform="translate(166.845703 0)"/>
      </g>
     </g>
    </g>
    <g id="xtick_4">
     <g id="line2d_4">
      <g>
       <use xlink:href="#m59481a1bfc" x="204.649412" y="307.584" style="stroke: #000000; stroke-width: 0.8"/>
      </g>
     </g>
     <g id="text_4">
      <!-- 8000 -->
      <g transform="translate(195.751912 315.32275) scale(0.08 -0.08)">
       <defs>
        <path id="Helvetica-38" d="M 1741 2600 
Q 2113 2600 2322 2808 
Q 2531 3016 2531 3303 
Q 2531 3553 2331 3762 
Q 2131 3972 1722 3972 
Q 1316 3972 1134 3762 
Q 953 3553 953 3272 
Q 953 2956 1187 2778 
Q 1422 2600 1741 2600 
z
M 1775 384 
Q 2166 384 2423 595 
Q 2681 806 2681 1225 
Q 2681 1659 2415 1884 
Q 2150 2109 1734 2109 
Q 1331 2109 1076 1879 
Q 822 1650 822 1244 
Q 822 894 1055 639 
Q 1288 384 1775 384 
z
M 975 2384 
Q 741 2484 609 2619 
Q 363 2869 363 3269 
Q 363 3769 725 4128 
Q 1088 4488 1753 4488 
Q 2397 4488 2762 4148 
Q 3128 3809 3128 3356 
Q 3128 2938 2916 2678 
Q 2797 2531 2547 2391 
Q 2825 2263 2984 2097 
Q 3281 1784 3281 1284 
Q 3281 694 2884 283 
Q 2488 -128 1763 -128 
Q 1109 -128 657 226 
Q 206 581 206 1256 
Q 206 1653 400 1942 
Q 594 2231 975 2384 
z
" transform="scale(0.015625)"/>
       </defs>
       <use xlink:href="#Helvetica-38"/>
       <use xlink:href="#Helvetica-30" transform="translate(55.615234 0)"/>
       <use xlink:href="#Helvetica-30" transform="translate(111.230469 0)"/>
       <use xlink:href="#Helvetica-30" transform="translate(166.845703 0)"/>
      </g>
     </g>
    </g>
    <g id="xtick_5">
     <g id="line2d_5">
      <g>
       <use xlink:href="#m59481a1bfc" x="246.663529" y="307.584" style="stroke: #000000; stroke-width: 0.8"/>
      </g>
     </g>
     <g id="text_5">
      <!-- 10000 -->
      <g transform="translate(235.541654 315.32275) scale(0.08 -0.08)">
       <defs>
        <path id="Helvetica-31" d="M 613 3169 
L 613 3600 
Q 1222 3659 1462 3798 
Q 1703 3938 1822 4456 
L 2266 4456 
L 2266 0 
L 1666 0 
L 1666 3169 
L 613 3169 
z
" transform="scale(0.015625)"/>
       </defs>
       <use xlink:href="#Helvetica-31"/>
       <use xlink:href="#Helvetica-30" transform="translate(55.615234 0)"/>
       <use xlink:href="#Helvetica-30" transform="translate(111.230469 0)"/>
       <use xlink:href="#Helvetica-30" transform="translate(166.845703 0)"/>
       <use xlink:href="#Helvetica-30" transform="translate(222.460938 0)"/>
      </g>
     </g>
    </g>
    <g id="xtick_6">
     <g id="line2d_6">
      <g>
       <use xlink:href="#m59481a1bfc" x="288.677647" y="307.584" style="stroke: #000000; stroke-width: 0.8"/>
      </g>
     </g>
     <g id="text_6">
      <!-- 12000 -->
      <g transform="translate(277.555772 315.32275) scale(0.08 -0.08)">
       <use xlink:href="#Helvetica-31"/>
       <use xlink:href="#Helvetica-32" transform="translate(55.615234 0)"/>
       <use xlink:href="#Helvetica-30" transform="translate(111.230469 0)"/>
       <use xlink:href="#Helvetica-30" transform="translate(166.845703 0)"/>
       <use xlink:href="#Helvetica-30" transform="translate(222.460938 0)"/>
      </g>
     </g>
    </g>
    <g id="xtick_7">
     <g id="line2d_7">
      <g>
       <use xlink:href="#m59481a1bfc" x="330.691765" y="307.584" style="stroke: #000000; stroke-width: 0.8"/>
      </g>
     </g>
     <g id="text_7">
      <!-- 14000 -->
      <g transform="translate(319.56989 315.32275) scale(0.08 -0.08)">
       <use xlink:href="#Helvetica-31"/>
       <use xlink:href="#Helvetica-34" transform="translate(55.615234 0)"/>
       <use xlink:href="#Helvetica-30" transform="translate(111.230469 0)"/>
       <use xlink:href="#Helvetica-30" transform="translate(166.845703 0)"/>
       <use xlink:href="#Helvetica-30" transform="translate(222.460938 0)"/>
      </g>
     </g>
    </g>
    <g id="xtick_8">
     <g id="line2d_8">
      <g>
       <use xlink:href="#m59481a1bfc" x="372.705882" y="307.584" style="stroke: #000000; stroke-width: 0.8"/>
      </g>
     </g>
     <g id="text_8">
      <!-- 16000 -->
      <g transform="translate(361.584007 315.32275) scale(0.08 -0.08)">
       <use xlink:href="#Helvetica-31"/>
       <use xlink:href="#Helvetica-36" transform="translate(55.615234 0)"/>
       <use xlink:href="#Helvetica-30" transform="translate(111.230469 0)"/>
       <use xlink:href="#Helvetica-30" transform="translate(166.845703 0)"/>
       <use xlink:href="#Helvetica-30" transform="translate(222.460938 0)"/>
      </g>
     </g>
    </g>
    <g id="xtick_9">
     <g id="line2d_9">
      <g>
       <use xlink:href="#m59481a1bfc" x="414.72" y="307.584" style="stroke: #000000; stroke-width: 0.8"/>
      </g>
     </g>
     <g id="text_9">
      <!-- 18000 -->
      <g transform="translate(403.598125 315.32275) scale(0.08 -0.08)">
       <use xlink:href="#Helvetica-31"/>
       <use xlink:href="#Helvetica-38" transform="translate(55.615234 0)"/>
       <use xlink:href="#Helvetica-30" transform="translate(111.230469 0)"/>
       <use xlink:href="#Helvetica-30" transform="translate(166.845703 0)"/>
       <use xlink:href="#Helvetica-30" transform="translate(222.460938 0)"/>
      </g>
     </g>
    </g>
    <g id="text_10">
     <!-- Frequency [Hz] -->
     <g transform="translate(209.040625 326.76775) scale(0.08 -0.08)">
      <defs>
       <path id="Helvetica-46" d="M 547 4591 
L 3731 4591 
L 3731 4028 
L 1169 4028 
L 1169 2634 
L 3422 2634 
L 3422 2088 
L 1169 2088 
L 1169 0 
L 547 0 
L 547 4591 
z
" transform="scale(0.015625)"/>
       <path id="Helvetica-72" d="M 428 3347 
L 963 3347 
L 963 2769 
Q 1028 2938 1284 3180 
Q 1541 3422 1875 3422 
Q 1891 3422 1928 3419 
Q 1966 3416 2056 3406 
L 2056 2813 
Q 2006 2822 1964 2825 
Q 1922 2828 1872 2828 
Q 1447 2828 1219 2554 
Q 991 2281 991 1925 
L 991 0 
L 428 0 
L 428 3347 
z
" transform="scale(0.015625)"/>
       <path id="Helvetica-65" d="M 1806 3422 
Q 2163 3422 2497 3255 
Q 2831 3088 3006 2822 
Q 3175 2569 3231 2231 
Q 3281 2000 3281 1494 
L 828 1494 
Q 844 984 1069 676 
Q 1294 369 1766 369 
Q 2206 369 2469 659 
Q 2619 828 2681 1050 
L 3234 1050 
Q 3213 866 3089 639 
Q 2966 413 2813 269 
Q 2556 19 2178 -69 
Q 1975 -119 1719 -119 
Q 1094 -119 659 336 
Q 225 791 225 1609 
Q 225 2416 662 2919 
Q 1100 3422 1806 3422 
z
M 2703 1941 
Q 2669 2306 2544 2525 
Q 2313 2931 1772 2931 
Q 1384 2931 1121 2651 
Q 859 2372 844 1941 
L 2703 1941 
z
M 1753 3428 
L 1753 3428 
z
" transform="scale(0.015625)"/>
       <path id="Helvetica-71" d="M 775 1628 
Q 775 1194 897 900 
Q 1113 378 1669 378 
Q 2256 378 2478 928 
Q 2600 1231 2600 1703 
Q 2600 2138 2466 2428 
Q 2238 2925 1663 2925 
Q 1297 2925 1036 2608 
Q 775 2291 775 1628 
z
M 1606 3422 
Q 2022 3422 2306 3213 
Q 2463 3100 2606 2881 
L 2606 3347 
L 3141 3347 
L 3141 -1334 
L 2575 -1334 
L 2575 384 
Q 2434 159 2186 26 
Q 1938 -106 1566 -106 
Q 1031 -106 609 312 
Q 188 731 188 1588 
Q 188 2391 583 2906 
Q 978 3422 1606 3422 
z
" transform="scale(0.015625)"/>
       <path id="Helvetica-75" d="M 975 3347 
L 975 1125 
Q 975 869 1056 706 
Q 1206 406 1616 406 
Q 2203 406 2416 931 
Q 2531 1213 2531 1703 
L 2531 3347 
L 3094 3347 
L 3094 0 
L 2563 0 
L 2569 494 
Q 2459 303 2297 172 
Q 1975 -91 1516 -91 
Q 800 -91 541 388 
Q 400 644 400 1072 
L 400 3347 
L 975 3347 
z
M 1747 3428 
L 1747 3428 
z
" transform="scale(0.015625)"/>
       <path id="Helvetica-6e" d="M 413 3347 
L 947 3347 
L 947 2872 
Q 1184 3166 1450 3294 
Q 1716 3422 2041 3422 
Q 2753 3422 3003 2925 
Q 3141 2653 3141 2147 
L 3141 0 
L 2569 0 
L 2569 2109 
Q 2569 2416 2478 2603 
Q 2328 2916 1934 2916 
Q 1734 2916 1606 2875 
Q 1375 2806 1200 2600 
Q 1059 2434 1017 2257 
Q 975 2081 975 1753 
L 975 0 
L 413 0 
L 413 3347 
z
M 1734 3428 
L 1734 3428 
z
" transform="scale(0.015625)"/>
       <path id="Helvetica-63" d="M 1703 3444 
Q 2269 3444 2623 3169 
Q 2978 2894 3050 2222 
L 2503 2222 
Q 2453 2531 2275 2736 
Q 2097 2941 1703 2941 
Q 1166 2941 934 2416 
Q 784 2075 784 1575 
Q 784 1072 996 728 
Q 1209 384 1666 384 
Q 2016 384 2220 598 
Q 2425 813 2503 1184 
L 3050 1184 
Q 2956 519 2581 211 
Q 2206 -97 1622 -97 
Q 966 -97 575 383 
Q 184 863 184 1581 
Q 184 2463 612 2953 
Q 1041 3444 1703 3444 
z
M 1616 3428 
L 1616 3428 
z
" transform="scale(0.015625)"/>
       <path id="Helvetica-79" d="M 2503 3347 
L 3125 3347 
Q 3006 3025 2597 1878 
Q 2291 1016 2084 472 
Q 1597 -809 1397 -1090 
Q 1197 -1372 709 -1372 
Q 591 -1372 527 -1362 
Q 463 -1353 369 -1328 
L 369 -816 
Q 516 -856 581 -865 
Q 647 -875 697 -875 
Q 853 -875 926 -823 
Q 1000 -772 1050 -697 
Q 1066 -672 1162 -440 
Q 1259 -209 1303 -97 
L 66 3347 
L 703 3347 
L 1600 622 
L 2503 3347 
z
M 1597 3428 
L 1597 3428 
z
" transform="scale(0.015625)"/>
       <path id="Helvetica-20" transform="scale(0.015625)"/>
       <path id="Helvetica-5b" d="M 400 4622 
L 1600 4622 
L 1600 4163 
L 931 4163 
L 931 -800 
L 1600 -800 
L 1600 -1259 
L 400 -1259 
L 400 4622 
z
" transform="scale(0.015625)"/>
       <path id="Helvetica-48" d="M 503 4591 
L 1131 4591 
L 1131 2694 
L 3519 2694 
L 3519 4591 
L 4147 4591 
L 4147 0 
L 3519 0 
L 3519 2147 
L 1131 2147 
L 1131 0 
L 503 0 
L 503 4591 
z
" transform="scale(0.015625)"/>
       <path id="Helvetica-7a" d="M 163 444 
L 2147 2844 
L 309 2844 
L 309 3347 
L 2903 3347 
L 2903 2888 
L 931 503 
L 2963 503 
L 2963 0 
L 163 0 
L 163 444 
z
M 1609 3428 
L 1609 3428 
z
" transform="scale(0.015625)"/>
       <path id="Helvetica-5d" d="M 147 -800 
L 813 -800 
L 813 4163 
L 147 4163 
L 147 4622 
L 1347 4622 
L 1347 -1259 
L 147 -1259 
L 147 -800 
z
" transform="scale(0.015625)"/>
      </defs>
      <use xlink:href="#Helvetica-46"/>
      <use xlink:href="#Helvetica-72" transform="translate(61.083984 0)"/>
      <use xlink:href="#Helvetica-65" transform="translate(94.384766 0)"/>
      <use xlink:href="#Helvetica-71" transform="translate(150 0)"/>
      <use xlink:href="#Helvetica-75" transform="translate(205.615234 0)"/>
      <use xlink:href="#Helvetica-65" transform="translate(261.230469 0)"/>
      <use xlink:href="#Helvetica-6e" transform="translate(316.845703 0)"/>
      <use xlink:href="#Helvetica-63" transform="translate(372.460938 0)"/>
      <use xlink:href="#Helvetica-79" transform="translate(422.460938 0)"/>
      <use xlink:href="#Helvetica-20" transform="translate(472.460938 0)"/>
      <use xlink:href="#Helvetica-5b" transform="translate(500.244141 0)"/>
      <use xlink:href="#Helvetica-48" transform="translate(528.027344 0)"/>
      <use xlink:href="#Helvetica-7a" transform="translate(600.244141 0)"/>
      <use xlink:href="#Helvetica-5d" transform="translate(650.244141 0)"/>
     </g>
    </g>
   </g>
   <g id="matplotlib.axis_2">
    <g id="ytick_1">
     <g id="line2d_10">
      <path d="M 57.6 293.131344 
L 414.72 293.131344 
" clip-path="url(#pb3ec886d6f)" style="fill: none; stroke: #b0b0b0; stroke-width: 0.25; stroke-linecap: square"/>
     </g>
     <g id="line2d_11">
      <defs>
       <path id="m9da8269633" d="M 0 0 
L 2 0 
" style="stroke: #000000; stroke-width: 0.8"/>
      </defs>
      <g>
       <use xlink:href="#m9da8269633" x="57.6" y="293.131344" style="stroke: #000000; stroke-width: 0.8"/>
      </g>
     </g>
     <g id="text_11">
      <!-- -40 -->
      <g transform="translate(44.03875 296.000719) scale(0.08 -0.08)">
       <defs>
        <path id="Helvetica-2d" d="M 266 2072 
L 1834 2072 
L 1834 1494 
L 266 1494 
L 266 2072 
z
" transform="scale(0.015625)"/>
       </defs>
       <use xlink:href="#Helvetica-2d"/>
       <use xlink:href="#Helvetica-34" transform="translate(33.300781 0)"/>
       <use xlink:href="#Helvetica-30" transform="translate(88.916016 0)"/>
      </g>
     </g>
    </g>
    <g id="ytick_2">
     <g id="line2d_12">
      <path d="M 57.6 280.058132 
L 414.72 280.058132 
" clip-path="url(#pb3ec886d6f)" style="fill: none; stroke: #b0b0b0; stroke-width: 0.25; stroke-linecap: square"/>
     </g>
     <g id="line2d_13">
      <g>
       <use xlink:href="#m9da8269633" x="57.6" y="280.058132" style="stroke: #000000; stroke-width: 0.8"/>
      </g>
     </g>
     <g id="text_12">
      <!-- -35 -->
      <g transform="translate(44.03875 282.927507) scale(0.08 -0.08)">
       <defs>
        <path id="Helvetica-33" d="M 1663 -122 
Q 869 -122 511 314 
Q 153 750 153 1375 
L 741 1375 
Q 778 941 903 744 
Q 1122 391 1694 391 
Q 2138 391 2406 628 
Q 2675 866 2675 1241 
Q 2675 1703 2392 1887 
Q 2109 2072 1606 2072 
Q 1550 2072 1492 2070 
Q 1434 2069 1375 2066 
L 1375 2563 
Q 1463 2553 1522 2550 
Q 1581 2547 1650 2547 
Q 1966 2547 2169 2647 
Q 2525 2822 2525 3272 
Q 2525 3606 2287 3787 
Q 2050 3969 1734 3969 
Q 1172 3969 956 3594 
Q 838 3388 822 3006 
L 266 3006 
Q 266 3506 466 3856 
Q 809 4481 1675 4481 
Q 2359 4481 2734 4176 
Q 3109 3872 3109 3294 
Q 3109 2881 2888 2625 
Q 2750 2466 2531 2375 
Q 2884 2278 3082 2001 
Q 3281 1725 3281 1325 
Q 3281 684 2859 281 
Q 2438 -122 1663 -122 
z
" transform="scale(0.015625)"/>
        <path id="Helvetica-35" d="M 791 1141 
Q 847 659 1238 475 
Q 1438 381 1700 381 
Q 2200 381 2440 700 
Q 2681 1019 2681 1406 
Q 2681 1875 2395 2131 
Q 2109 2388 1709 2388 
Q 1419 2388 1211 2275 
Q 1003 2163 856 1963 
L 369 1991 
L 709 4400 
L 3034 4400 
L 3034 3856 
L 1131 3856 
L 941 2613 
Q 1097 2731 1238 2791 
Q 1488 2894 1816 2894 
Q 2431 2894 2859 2497 
Q 3288 2100 3288 1491 
Q 3288 856 2895 371 
Q 2503 -113 1644 -113 
Q 1097 -113 676 195 
Q 256 503 206 1141 
L 791 1141 
z
" transform="scale(0.015625)"/>
       </defs>
       <use xlink:href="#Helvetica-2d"/>
       <use xlink:href="#Helvetica-33" transform="translate(33.300781 0)"/>
       <use xlink:href="#Helvetica-35" transform="translate(88.916016 0)"/>
      </g>
     </g>
    </g>
    <g id="ytick_3">
     <g id="line2d_14">
      <path d="M 57.6 266.984919 
L 414.72 266.984919 
" clip-path="url(#pb3ec886d6f)" style="fill: none; stroke: #b0b0b0; stroke-width: 0.25; stroke-linecap: square"/>
     </g>
     <g id="line2d_15">
      <g>
       <use xlink:href="#m9da8269633" x="57.6" y="266.984919" style="stroke: #000000; stroke-width: 0.8"/>
      </g>
     </g>
     <g id="text_13">
      <!-- -30 -->
      <g transform="translate(44.03875 269.854294) scale(0.08 -0.08)">
       <use xlink:href="#Helvetica-2d"/>
       <use xlink:href="#Helvetica-33" transform="translate(33.300781 0)"/>
       <use xlink:href="#Helvetica-30" transform="translate(88.916016 0)"/>
      </g>
     </g>
    </g>
    <g id="ytick_4">
     <g id="line2d_16">
      <path d="M 57.6 253.911706 
L 414.72 253.911706 
" clip-path="url(#pb3ec886d6f)" style="fill: none; stroke: #b0b0b0; stroke-width: 0.25; stroke-linecap: square"/>
     </g>
     <g id="line2d_17">
      <g>
       <use xlink:href="#m9da8269633" x="57.6" y="253.911706" style="stroke: #000000; stroke-width: 0.8"/>
      </g>
     </g>
     <g id="text_14">
      <!-- -25 -->
      <g transform="translate(44.03875 256.781081) scale(0.08 -0.08)">
       <use xlink:href="#Helvetica-2d"/>
       <use xlink:href="#Helvetica-32" transform="translate(33.300781 0)"/>
       <use xlink:href="#Helvetica-35" transform="translate(88.916016 0)"/>
      </g>
     </g>
    </g>
    <g id="ytick_5">
     <g id="line2d_18">
      <path d="M 57.6 240.838493 
L 414.72 240.838493 
" clip-path="url(#pb3ec886d6f)" style="fill: none; stroke: #b0b0b0; stroke-width: 0.25; stroke-linecap: square"/>
     </g>
     <g id="line2d_19">
      <g>
       <use xlink:href="#m9da8269633" x="57.6" y="240.838493" style="stroke: #000000; stroke-width: 0.8"/>
      </g>
     </g>
     <g id="text_15">
      <!-- -20 -->
      <g transform="translate(44.03875 243.707868) scale(0.08 -0.08)">
       <use xlink:href="#Helvetica-2d"/>
       <use xlink:href="#Helvetica-32" transform="translate(33.300781 0)"/>
       <use xlink:href="#Helvetica-30" transform="translate(88.916016 0)"/>
      </g>
     </g>
    </g>
    <g id="ytick_6">
     <g id="line2d_20">
      <path d="M 57.6 227.765281 
L 414.72 227.765281 
" clip-path="url(#pb3ec886d6f)" style="fill: none; stroke: #b0b0b0; stroke-width: 0.25; stroke-linecap: square"/>
     </g>
     <g id="line2d_21">
      <g>
       <use xlink:href="#m9da8269633" x="57.6" y="227.765281" style="stroke: #000000; stroke-width: 0.8"/>
      </g>
     </g>
     <g id="text_16">
      <!-- -15 -->
      <g transform="translate(44.03875 230.634656) scale(0.08 -0.08)">
       <use xlink:href="#Helvetica-2d"/>
       <use xlink:href="#Helvetica-31" transform="translate(33.300781 0)"/>
       <use xlink:href="#Helvetica-35" transform="translate(88.916016 0)"/>
      </g>
     </g>
    </g>
    <g id="ytick_7">
     <g id="line2d_22">
      <path d="M 57.6 214.692068 
L 414.72 214.692068 
" clip-path="url(#pb3ec886d6f)" style="fill: none; stroke: #b0b0b0; stroke-width: 0.25; stroke-linecap: square"/>
     </g>
     <g id="line2d_23">
      <g>
       <use xlink:href="#m9da8269633" x="57.6" y="214.692068" style="stroke: #000000; stroke-width: 0.8"/>
      </g>
     </g>
     <g id="text_17">
      <!-- -10 -->
      <g transform="translate(44.03875 217.561443) scale(0.08 -0.08)">
       <use xlink:href="#Helvetica-2d"/>
       <use xlink:href="#Helvetica-31" transform="translate(33.300781 0)"/>
       <use xlink:href="#Helvetica-30" transform="translate(88.916016 0)"/>
      </g>
     </g>
    </g>
    <g id="ytick_8">
     <g id="line2d_24">
      <path d="M 57.6 201.618855 
L 414.72 201.618855 
" clip-path="url(#pb3ec886d6f)" style="fill: none; stroke: #b0b0b0; stroke-width: 0.25; stroke-linecap: square"/>
     </g>
     <g id="line2d_25">
      <g>
       <use xlink:href="#m9da8269633" x="57.6" y="201.618855" style="stroke: #000000; stroke-width: 0.8"/>
      </g>
     </g>
     <g id="text_18">
      <!-- -10 -->
      <g transform="translate(44.03875 204.48823) scale(0.08 -0.08)">
       <use xlink:href="#Helvetica-2d"/>
       <use xlink:href="#Helvetica-31" transform="translate(33.300781 0)"/>
       <use xlink:href="#Helvetica-30" transform="translate(88.916016 0)"/>
      </g>
     </g>
    </g>
    <g id="ytick_9">
     <g id="line2d_26">
      <path d="M 57.6 188.545643 
L 414.72 188.545643 
" clip-path="url(#pb3ec886d6f)" style="fill: none; stroke: #b0b0b0; stroke-width: 0.25; stroke-linecap: square"/>
     </g>
     <g id="line2d_27">
      <g>
       <use xlink:href="#m9da8269633" x="57.6" y="188.545643" style="stroke: #000000; stroke-width: 0.8"/>
      </g>
     </g>
     <g id="text_19">
      <!-- -5 -->
      <g transform="translate(48.4875 191.415018) scale(0.08 -0.08)">
       <use xlink:href="#Helvetica-2d"/>
       <use xlink:href="#Helvetica-35" transform="translate(33.300781 0)"/>
      </g>
     </g>
    </g>
    <g id="ytick_10">
     <g id="line2d_28">
      <path d="M 57.6 175.47243 
L 414.72 175.47243 
" clip-path="url(#pb3ec886d6f)" style="fill: none; stroke: #b0b0b0; stroke-width: 0.25; stroke-linecap: square"/>
     </g>
     <g id="line2d_29">
      <g>
       <use xlink:href="#m9da8269633" x="57.6" y="175.47243" style="stroke: #000000; stroke-width: 0.8"/>
      </g>
     </g>
     <g id="text_20">
      <!-- 0 -->
      <g transform="translate(51.15125 178.341805) scale(0.08 -0.08)">
       <use xlink:href="#Helvetica-30"/>
      </g>
     </g>
    </g>
    <g id="ytick_11">
     <g id="line2d_30">
      <path d="M 57.6 162.399217 
L 414.72 162.399217 
" clip-path="url(#pb3ec886d6f)" style="fill: none; stroke: #b0b0b0; stroke-width: 0.25; stroke-linecap: square"/>
     </g>
     <g id="line2d_31">
      <g>
       <use xlink:href="#m9da8269633" x="57.6" y="162.399217" style="stroke: #000000; stroke-width: 0.8"/>
      </g>
     </g>
     <g id="text_21">
      <!-- 5 -->
      <g transform="translate(51.15125 165.268592) scale(0.08 -0.08)">
       <use xlink:href="#Helvetica-35"/>
      </g>
     </g>
    </g>
    <g id="ytick_12">
     <g id="line2d_32">
      <path d="M 57.6 149.326005 
L 414.72 149.326005 
" clip-path="url(#pb3ec886d6f)" style="fill: none; stroke: #b0b0b0; stroke-width: 0.25; stroke-linecap: square"/>
     </g>
     <g id="line2d_33">
      <g>
       <use xlink:href="#m9da8269633" x="57.6" y="149.326005" style="stroke: #000000; stroke-width: 0.8"/>
      </g>
     </g>
     <g id="text_22">
      <!-- 10 -->
      <g transform="translate(46.7025 152.19538) scale(0.08 -0.08)">
       <use xlink:href="#Helvetica-31"/>
       <use xlink:href="#Helvetica-30" transform="translate(55.615234 0)"/>
      </g>
     </g>
    </g>
    <g id="ytick_13">
     <g id="line2d_34">
      <path d="M 57.6 136.252792 
L 414.72 136.252792 
" clip-path="url(#pb3ec886d6f)" style="fill: none; stroke: #b0b0b0; stroke-width: 0.25; stroke-linecap: square"/>
     </g>
     <g id="line2d_35">
      <g>
       <use xlink:href="#m9da8269633" x="57.6" y="136.252792" style="stroke: #000000; stroke-width: 0.8"/>
      </g>
     </g>
     <g id="text_23">
      <!-- 10 -->
      <g transform="translate(46.7025 139.122167) scale(0.08 -0.08)">
       <use xlink:href="#Helvetica-31"/>
       <use xlink:href="#Helvetica-30" transform="translate(55.615234 0)"/>
      </g>
     </g>
    </g>
    <g id="ytick_14">
     <g id="line2d_36">
      <path d="M 57.6 123.179579 
L 414.72 123.179579 
" clip-path="url(#pb3ec886d6f)" style="fill: none; stroke: #b0b0b0; stroke-width: 0.25; stroke-linecap: square"/>
     </g>
     <g id="line2d_37">
      <g>
       <use xlink:href="#m9da8269633" x="57.6" y="123.179579" style="stroke: #000000; stroke-width: 0.8"/>
      </g>
     </g>
     <g id="text_24">
      <!-- 15 -->
      <g transform="translate(46.7025 126.048954) scale(0.08 -0.08)">
       <use xlink:href="#Helvetica-31"/>
       <use xlink:href="#Helvetica-35" transform="translate(55.615234 0)"/>
      </g>
     </g>
    </g>
    <g id="ytick_15">
     <g id="line2d_38">
      <path d="M 57.6 110.106367 
L 414.72 110.106367 
" clip-path="url(#pb3ec886d6f)" style="fill: none; stroke: #b0b0b0; stroke-width: 0.25; stroke-linecap: square"/>
     </g>
     <g id="line2d_39">
      <g>
       <use xlink:href="#m9da8269633" x="57.6" y="110.106367" style="stroke: #000000; stroke-width: 0.8"/>
      </g>
     </g>
     <g id="text_25">
      <!-- 20 -->
      <g transform="translate(46.7025 112.975742) scale(0.08 -0.08)">
       <use xlink:href="#Helvetica-32"/>
       <use xlink:href="#Helvetica-30" transform="translate(55.615234 0)"/>
      </g>
     </g>
    </g>
    <g id="ytick_16">
     <g id="line2d_40">
      <path d="M 57.6 97.033154 
L 414.72 97.033154 
" clip-path="url(#pb3ec886d6f)" style="fill: none; stroke: #b0b0b0; stroke-width: 0.25; stroke-linecap: square"/>
     </g>
     <g id="line2d_41">
      <g>
       <use xlink:href="#m9da8269633" x="57.6" y="97.033154" style="stroke: #000000; stroke-width: 0.8"/>
      </g>
     </g>
     <g id="text_26">
      <!-- 25 -->
      <g transform="translate(46.7025 99.902529) scale(0.08 -0.08)">
       <use xlink:href="#Helvetica-32"/>
       <use xlink:href="#Helvetica-35" transform="translate(55.615234 0)"/>
      </g>
     </g>
    </g>
    <g id="ytick_17">
     <g id="line2d_42">
      <path d="M 57.6 83.959941 
L 414.72 83.959941 
" clip-path="url(#pb3ec886d6f)" style="fill: none; stroke: #b0b0b0; stroke-width: 0.25; stroke-linecap: square"/>
     </g>
     <g id="line2d_43">
      <g>
       <use xlink:href="#m9da8269633" x="57.6" y="83.959941" style="stroke: #000000; stroke-width: 0.8"/>
      </g>
     </g>
     <g id="text_27">
      <!-- 30 -->
      <g transform="translate(46.7025 86.829316) scale(0.08 -0.08)">
       <use xlink:href="#Helvetica-33"/>
       <use xlink:href="#Helvetica-30" transform="translate(55.615234 0)"/>
      </g>
     </g>
    </g>
    <g id="ytick_18">
     <g id="line2d_44">
      <path d="M 57.6 70.886729 
L 414.72 70.886729 
" clip-path="url(#pb3ec886d6f)" style="fill: none; stroke: #b0b0b0; stroke-width: 0.25; stroke-linecap: square"/>
     </g>
     <g id="line2d_45">
      <g>
       <use xlink:href="#m9da8269633" x="57.6" y="70.886729" style="stroke: #000000; stroke-width: 0.8"/>
      </g>
     </g>
     <g id="text_28">
      <!-- 35 -->
      <g transform="translate(46.7025 73.756104) scale(0.08 -0.08)">
       <use xlink:href="#Helvetica-33"/>
       <use xlink:href="#Helvetica-35" transform="translate(55.615234 0)"/>
      </g>
     </g>
    </g>
    <g id="ytick_19">
     <g id="line2d_46">
      <path d="M 57.6 57.813516 
L 414.72 57.813516 
" clip-path="url(#pb3ec886d6f)" style="fill: none; stroke: #b0b0b0; stroke-width: 0.25; stroke-linecap: square"/>
     </g>
     <g id="line2d_47">
      <g>
       <use xlink:href="#m9da8269633" x="57.6" y="57.813516" style="stroke: #000000; stroke-width: 0.8"/>
      </g>
     </g>
     <g id="text_29">
      <!-- 40 -->
      <g transform="translate(46.7025 60.682891) scale(0.08 -0.08)">
       <use xlink:href="#Helvetica-34"/>
       <use xlink:href="#Helvetica-30" transform="translate(55.615234 0)"/>
      </g>
     </g>
    </g>
    <g id="text_30">
     <!-- Elevation [˚] -->
     <g transform="translate(38.37125 195.648) rotate(-90) scale(0.08 -0.08)">
      <defs>
       <path id="Helvetica-45" d="M 547 4591 
L 3894 4591 
L 3894 4028 
L 1153 4028 
L 1153 2634 
L 3688 2634 
L 3688 2103 
L 1153 2103 
L 1153 547 
L 3941 547 
L 3941 0 
L 547 0 
L 547 4591 
z
M 2244 4591 
L 2244 4591 
z
" transform="scale(0.015625)"/>
       <path id="Helvetica-6c" d="M 428 4591 
L 991 4591 
L 991 0 
L 428 0 
L 428 4591 
z
" transform="scale(0.015625)"/>
       <path id="Helvetica-76" d="M 688 3347 
L 1581 622 
L 2516 3347 
L 3131 3347 
L 1869 0 
L 1269 0 
L 34 3347 
L 688 3347 
z
" transform="scale(0.015625)"/>
       <path id="Helvetica-61" d="M 844 891 
Q 844 647 1022 506 
Q 1200 366 1444 366 
Q 1741 366 2019 503 
Q 2488 731 2488 1250 
L 2488 1703 
Q 2384 1638 2221 1594 
Q 2059 1550 1903 1531 
L 1563 1488 
Q 1256 1447 1103 1359 
Q 844 1213 844 891 
z
M 2206 2028 
Q 2400 2053 2466 2191 
Q 2503 2266 2503 2406 
Q 2503 2694 2298 2823 
Q 2094 2953 1713 2953 
Q 1272 2953 1088 2716 
Q 984 2584 953 2325 
L 428 2325 
Q 444 2944 830 3186 
Q 1216 3428 1725 3428 
Q 2316 3428 2684 3203 
Q 3050 2978 3050 2503 
L 3050 575 
Q 3050 488 3086 434 
Q 3122 381 3238 381 
Q 3275 381 3322 386 
Q 3369 391 3422 400 
L 3422 -16 
Q 3291 -53 3222 -62 
Q 3153 -72 3034 -72 
Q 2744 -72 2613 134 
Q 2544 244 2516 444 
Q 2344 219 2022 53 
Q 1700 -113 1313 -113 
Q 847 -113 551 170 
Q 256 453 256 878 
Q 256 1344 547 1600 
Q 838 1856 1309 1916 
L 2206 2028 
z
M 1741 3428 
L 1741 3428 
z
" transform="scale(0.015625)"/>
       <path id="Helvetica-74" d="M 525 4281 
L 1094 4281 
L 1094 3347 
L 1628 3347 
L 1628 2888 
L 1094 2888 
L 1094 703 
Q 1094 528 1213 469 
Q 1278 434 1431 434 
Q 1472 434 1519 436 
Q 1566 438 1628 444 
L 1628 0 
Q 1531 -28 1426 -40 
Q 1322 -53 1200 -53 
Q 806 -53 665 148 
Q 525 350 525 672 
L 525 2888 
L 72 2888 
L 72 3347 
L 525 3347 
L 525 4281 
z
" transform="scale(0.015625)"/>
       <path id="Helvetica-69" d="M 413 3331 
L 984 3331 
L 984 0 
L 413 0 
L 413 3331 
z
M 413 4591 
L 984 4591 
L 984 3953 
L 413 3953 
L 413 4591 
z
" transform="scale(0.015625)"/>
       <path id="Helvetica-6f" d="M 1741 363 
Q 2300 363 2508 786 
Q 2716 1209 2716 1728 
Q 2716 2197 2566 2491 
Q 2328 2953 1747 2953 
Q 1231 2953 997 2559 
Q 763 2166 763 1609 
Q 763 1075 997 719 
Q 1231 363 1741 363 
z
M 1763 3444 
Q 2409 3444 2856 3012 
Q 3303 2581 3303 1744 
Q 3303 934 2909 406 
Q 2516 -122 1688 -122 
Q 997 -122 590 345 
Q 184 813 184 1600 
Q 184 2444 612 2944 
Q 1041 3444 1763 3444 
z
M 1744 3428 
L 1744 3428 
z
" transform="scale(0.015625)"/>
       <path id="Helvetica-2da" d="M 1063 4034 
Q 1225 4034 1340 4150 
Q 1456 4266 1456 4428 
Q 1456 4591 1340 4706 
Q 1225 4822 1063 4822 
Q 903 4822 787 4706 
Q 672 4591 672 4428 
Q 672 4266 787 4150 
Q 903 4034 1063 4034 
z
M 1063 5081 
Q 1331 5081 1523 4889 
Q 1716 4697 1716 4428 
Q 1716 4159 1523 3967 
Q 1331 3775 1063 3775 
Q 794 3775 603 3967 
Q 413 4159 413 4428 
Q 413 4697 603 4889 
Q 794 5081 1063 5081 
z
" transform="scale(0.015625)"/>
      </defs>
      <use xlink:href="#Helvetica-45"/>
      <use xlink:href="#Helvetica-6c" transform="translate(66.699219 0)"/>
      <use xlink:href="#Helvetica-65" transform="translate(88.916016 0)"/>
      <use xlink:href="#Helvetica-76" transform="translate(144.53125 0)"/>
      <use xlink:href="#Helvetica-61" transform="translate(194.53125 0)"/>
      <use xlink:href="#Helvetica-74" transform="translate(250.146484 0)"/>
      <use xlink:href="#Helvetica-69" transform="translate(277.929688 0)"/>
      <use xlink:href="#Helvetica-6f" transform="translate(300.146484 0)"/>
      <use xlink:href="#Helvetica-6e" transform="translate(355.761719 0)"/>
      <use xlink:href="#Helvetica-20" transform="translate(411.376953 0)"/>
      <use xlink:href="#Helvetica-5b" transform="translate(439.160156 0)"/>
      <use xlink:href="#Helvetica-2da" transform="translate(466.943359 0)"/>
      <use xlink:href="#Helvetica-5d" transform="translate(500.244141 0)"/>
     </g>
    </g>
   </g>
   <g id="line2d_48">
    <path d="M 36.592941 293.948667 
L 42.603094 293.822071 
L 48.613246 293.458214 
L 56.626782 292.686585 
L 76.660624 290.470949 
L 82.670776 290.06184 
L 88.680928 289.87619 
L 94.691081 289.933014 
L 100.701233 290.221401 
L 108.714769 290.896364 
L 134.758763 293.528024 
L 140.768915 293.849006 
L 146.779068 293.991941 
L 154.792604 293.926147 
L 170.819677 293.475517 
L 172.823061 293.595397 
L 174.826445 293.863949 
L 176.829829 294.310993 
L 184.843366 296.656052 
L 186.84675 296.72058 
L 188.850134 296.418014 
L 190.853518 295.833097 
L 194.860286 294.43948 
L 196.863671 293.901395 
L 198.867055 293.548535 
L 200.870439 293.367483 
L 204.877207 293.350555 
L 210.887359 293.66983 
L 230.921201 294.919547 
L 238.934737 295.187178 
L 246.948274 295.240744 
L 254.96181 295.091858 
L 266.982115 294.61478 
L 285.012572 293.863609 
L 295.029492 293.651289 
L 307.049797 293.625422 
L 337.100559 293.729427 
L 349.120864 293.492775 
L 383.178394 292.61 
L 393.195314 292.678209 
L 401.208851 292.926845 
L 409.222387 293.36101 
L 417.235924 293.981834 
L 427.252844 295.01042 
L 437.269765 296.295621 
L 447.286685 297.795627 
L 461.8 300.211994 
L 461.8 300.211994 
" clip-path="url(#pb3ec886d6f)" style="fill: none; stroke: #000000; stroke-opacity: 0.7; stroke-width: 0.75; stroke-linecap: square"/>
   </g>
   <g id="line2d_49">
    <path d="M 36.592941 287.112472 
L 42.603094 287.016429 
L 50.61663 286.613227 
L 60.633551 285.799711 
L 76.660624 284.434919 
L 84.67416 284.020593 
L 90.684312 283.902136 
L 96.694465 283.958415 
L 104.708001 284.278083 
L 114.724922 284.947688 
L 132.755379 286.219974 
L 140.768915 286.576896 
L 150.785836 286.771156 
L 170.819677 286.894714 
L 172.823061 287.101308 
L 174.826445 287.45756 
L 176.829829 287.992451 
L 184.843366 290.674139 
L 186.84675 290.815344 
L 188.850134 290.585094 
L 190.853518 290.067549 
L 194.860286 288.791803 
L 196.863671 288.303377 
L 198.867055 287.99355 
L 200.870439 287.84867 
L 204.877207 287.882935 
L 214.894128 288.476544 
L 224.911048 288.992191 
L 232.924585 289.208986 
L 240.938121 289.208194 
L 248.951658 288.997974 
L 260.971962 288.410704 
L 279.002419 287.488302 
L 289.01934 287.226927 
L 299.036261 287.213539 
L 311.056565 287.442528 
L 331.090406 287.871009 
L 343.110711 287.860097 
L 355.131016 287.602004 
L 383.178394 286.867766 
L 393.195314 286.915532 
L 401.208851 287.161569 
L 409.222387 287.60954 
L 417.235924 288.260089 
L 425.24946 289.102608 
L 435.266381 290.395537 
L 447.286685 292.224922 
L 461.8 294.660209 
L 461.8 294.660209 
" clip-path="url(#pb3ec886d6f)" style="fill: none; stroke: #000000; stroke-opacity: 0.7; stroke-width: 0.75; stroke-linecap: square"/>
   </g>
   <g id="line2d_50">
    <path d="M 36.592941 281.099806 
L 42.603094 280.953304 
L 48.613246 280.533052 
L 54.623398 279.894147 
L 78.664008 276.988564 
L 84.67416 276.638461 
L 90.684312 276.557197 
L 96.694465 276.747531 
L 102.704617 277.17764 
L 110.718154 278.016317 
L 128.748611 280.056358 
L 134.758763 280.515745 
L 140.768915 280.790669 
L 146.779068 280.878252 
L 154.792604 280.749468 
L 174.826445 280.162211 
L 176.829829 280.299891 
L 178.833214 280.585114 
L 180.836598 281.051784 
L 184.843366 282.442186 
L 186.84675 283.161038 
L 188.850134 283.685323 
L 190.853518 283.880884 
L 192.856902 283.703861 
L 194.860286 283.219827 
L 198.867055 281.928882 
L 200.870439 281.405218 
L 202.873823 281.056624 
L 204.877207 280.876851 
L 208.883975 280.858733 
L 232.924585 281.68605 
L 240.938121 281.614591 
L 250.955042 281.294244 
L 276.999035 280.289531 
L 289.01934 280.124478 
L 323.07687 279.878701 
L 357.1344 279.224785 
L 369.154705 279.338824 
L 395.198698 279.727753 
L 411.225771 279.61492 
L 421.242692 279.610361 
L 427.252844 279.771254 
L 433.262996 280.138097 
L 439.273149 280.769544 
L 445.283301 281.704772 
L 451.293454 282.955339 
L 457.303606 284.500299 
L 461.8 285.819206 
L 461.8 285.819206 
" clip-path="url(#pb3ec886d6f)" style="fill: none; stroke: #000000; stroke-opacity: 0.7; stroke-width: 0.75; stroke-linecap: square"/>
   </g>
   <g id="line2d_51">
    <path d="M 36.592941 274.403532 
L 42.603094 274.276423 
L 48.613246 273.911313 
L 56.626782 273.138155 
L 76.660624 270.925124 
L 82.670776 270.514376 
L 88.680928 270.320984 
L 94.691081 270.360288 
L 100.701233 270.618338 
L 108.714769 271.23093 
L 134.758763 273.610367 
L 142.772299 273.993237 
L 150.785836 274.1428 
L 162.806141 274.074431 
L 172.823061 274.039177 
L 176.829829 274.313376 
L 178.833214 274.643236 
L 180.836598 275.150334 
L 184.843366 276.60754 
L 186.84675 277.352219 
L 188.850134 277.897021 
L 190.853518 278.10769 
L 192.856902 277.940324 
L 194.860286 277.460532 
L 200.870439 275.627453 
L 202.873823 275.263035 
L 204.877207 275.063111 
L 208.883975 274.993222 
L 230.921201 275.403098 
L 240.938121 275.201779 
L 254.96181 274.63518 
L 268.985499 274.103445 
L 279.002419 273.916348 
L 291.022724 273.917294 
L 319.070102 274.032433 
L 335.097175 273.775534 
L 353.127632 273.526712 
L 365.147936 273.590145 
L 401.208851 274.01347 
L 423.246076 273.976226 
L 429.256228 274.192023 
L 435.266381 274.61856 
L 441.276533 275.304216 
L 447.286685 276.276626 
L 453.296838 277.536185 
L 459.30699 279.052901 
L 461.8 279.74603 
L 461.8 279.74603 
" clip-path="url(#pb3ec886d6f)" style="fill: none; stroke: #000000; stroke-opacity: 0.7; stroke-width: 0.75; stroke-linecap: square"/>
   </g>
   <g id="line2d_52">
    <path d="M 36.592941 268.145011 
L 42.603094 267.988259 
L 48.613246 267.539001 
L 54.623398 266.857258 
L 78.664008 263.792794 
L 84.67416 263.437552 
L 90.684312 263.368514 
L 96.694465 263.584238 
L 102.704617 264.045903 
L 110.718154 264.921399 
L 126.745226 266.760908 
L 132.755379 267.23222 
L 138.765531 267.508651 
L 144.775684 267.585523 
L 152.78922 267.427254 
L 176.829829 266.602911 
L 180.836598 266.838553 
L 182.839982 267.150184 
L 184.843366 267.643285 
L 186.84675 268.320615 
L 190.853518 269.928962 
L 192.856902 270.569529 
L 194.860286 270.899757 
L 196.863671 270.854866 
L 198.867055 270.479636 
L 204.877207 268.794735 
L 206.880591 268.450335 
L 208.883975 268.271821 
L 212.890744 268.257435 
L 228.917816 268.761869 
L 236.931353 268.652885 
L 244.944889 268.302226 
L 260.971962 267.273737 
L 270.988883 266.741277 
L 279.002419 266.4999 
L 289.01934 266.434356 
L 323.07687 266.513082 
L 339.103943 266.074876 
L 351.124248 265.806243 
L 361.141168 265.791704 
L 373.161473 266.03974 
L 393.195314 266.53811 
L 403.212235 266.539055 
L 427.252844 266.325393 
L 433.262996 266.569944 
L 439.273149 267.081915 
L 445.283301 267.912705 
L 449.290069 268.655617 
L 455.300222 270.046883 
L 461.8 271.881143 
L 461.8 271.881143 
" clip-path="url(#pb3ec886d6f)" style="fill: none; stroke: #000000; stroke-opacity: 0.7; stroke-width: 0.75; stroke-linecap: square"/>
   </g>
   <g id="line2d_53">
    <path d="M 36.592941 261.494755 
L 42.603094 261.353941 
L 48.613246 260.949945 
L 54.623398 260.335528 
L 78.664008 257.526367 
L 84.67416 257.176227 
L 90.684312 257.077838 
L 96.694465 257.232869 
L 102.704617 257.610603 
L 110.718154 258.359212 
L 128.748611 260.191893 
L 136.762147 260.717895 
L 144.775684 260.96774 
L 152.78922 260.978454 
L 176.829829 260.748528 
L 180.836598 261.051184 
L 182.839982 261.389739 
L 184.843366 261.905077 
L 186.84675 262.599806 
L 190.853518 264.22815 
L 192.856902 264.871325 
L 194.860286 265.19935 
L 196.863671 265.147593 
L 198.867055 264.761046 
L 204.877207 263.018304 
L 206.880591 262.6478 
L 208.883975 262.440428 
L 212.890744 262.361791 
L 228.917816 262.587717 
L 236.931353 262.370881 
L 246.948274 261.831559 
L 266.982115 260.634003 
L 274.995651 260.381368 
L 283.009188 260.31781 
L 295.029492 260.489768 
L 313.059949 260.810315 
L 323.07687 260.77764 
L 337.100559 260.473002 
L 353.127632 260.138445 
L 363.144552 260.1384 
L 375.164857 260.364678 
L 395.198698 260.76942 
L 407.219003 260.73583 
L 423.246076 260.626492 
L 429.256228 260.763038 
L 435.266381 261.105192 
L 441.276533 261.712389 
L 447.286685 262.622555 
L 453.296838 263.843945 
L 459.30699 265.350685 
L 461.8 266.048299 
L 461.8 266.048299 
" clip-path="url(#pb3ec886d6f)" style="fill: none; stroke: #000000; stroke-opacity: 0.7; stroke-width: 0.75; stroke-linecap: square"/>
   </g>
   <g id="line2d_54">
    <path d="M 36.592941 255.180942 
L 42.603094 255.018047 
L 48.613246 254.551182 
L 54.623398 253.842699 
L 66.643703 252.095137 
L 74.657239 251.048314 
L 80.667392 250.495608 
L 86.677544 250.215034 
L 92.687696 250.231009 
L 98.697849 250.52747 
L 104.708001 251.051855 
L 114.724922 252.208401 
L 124.741842 253.341165 
L 130.751995 253.852189 
L 136.762147 254.176185 
L 142.772299 254.301675 
L 150.785836 254.201711 
L 178.833214 253.465393 
L 182.839982 253.645447 
L 184.843366 253.85703 
L 186.84675 254.204486 
L 188.850134 254.727195 
L 190.853518 255.435475 
L 196.863671 257.890082 
L 198.867055 258.331149 
L 200.870439 258.394263 
L 202.873823 258.103067 
L 210.887359 256.071729 
L 212.890744 255.850899 
L 216.897512 255.750452 
L 228.917816 255.864768 
L 234.927969 255.684766 
L 242.941505 255.193194 
L 254.96181 254.15786 
L 264.978731 253.338546 
L 272.992267 252.885567 
L 281.005804 252.67307 
L 289.01934 252.681005 
L 305.046413 253.011306 
L 317.066718 253.13047 
L 327.083638 252.994629 
L 357.1344 252.318254 
L 367.151321 252.483128 
L 381.175009 253.032549 
L 393.195314 253.453253 
L 401.208851 253.545656 
L 411.225771 253.415148 
L 429.256228 253.080716 
L 435.266381 253.22444 
L 441.276533 253.629788 
L 445.283301 254.074535 
L 449.290069 254.670731 
L 453.296838 255.420471 
L 459.30699 256.818361 
L 461.8 257.486832 
L 461.8 257.486832 
" clip-path="url(#pb3ec886d6f)" style="fill: none; stroke: #000000; stroke-opacity: 0.7; stroke-width: 0.75; stroke-linecap: square"/>
   </g>
   <g id="line2d_55">
    <path d="M 36.592941 248.529174 
L 42.603094 248.380143 
L 48.613246 247.952681 
L 54.623398 247.302891 
L 66.643703 245.691467 
L 74.657239 244.714039 
L 80.667392 244.186416 
L 86.677544 243.902034 
L 92.687696 243.884804 
L 98.697849 244.122733 
L 104.708001 244.571431 
L 114.724922 245.59489 
L 126.745226 246.816652 
L 134.758763 247.383227 
L 142.772299 247.67065 
L 150.785836 247.709561 
L 176.829829 247.533288 
L 180.836598 247.681099 
L 184.843366 248.058974 
L 186.84675 248.423539 
L 188.850134 248.958917 
L 190.853518 249.675387 
L 196.863671 252.128031 
L 198.867055 252.55999 
L 200.870439 252.610081 
L 202.873823 252.302203 
L 210.887359 250.173908 
L 212.890744 249.923106 
L 216.897512 249.758631 
L 228.917816 249.677494 
L 236.931353 249.294304 
L 246.948274 248.50362 
L 262.975346 247.142627 
L 270.988883 246.699358 
L 279.002419 246.510578 
L 287.015956 246.562829 
L 299.036261 246.918166 
L 313.059949 247.309968 
L 323.07687 247.348116 
L 335.097175 247.119527 
L 353.127632 246.727782 
L 363.144552 246.768013 
L 373.161473 247.035913 
L 395.198698 247.747079 
L 405.215619 247.772177 
L 419.239308 247.505166 
L 427.252844 247.419202 
L 433.262996 247.524251 
L 439.273149 247.859736 
L 445.283301 248.485442 
L 451.293454 249.434123 
L 457.303606 250.704129 
L 461.8 251.844834 
L 461.8 251.844834 
" clip-path="url(#pb3ec886d6f)" style="fill: none; stroke: #000000; stroke-opacity: 0.7; stroke-width: 0.75; stroke-linecap: square"/>
   </g>
   <g id="line2d_56">
    <path d="M 36.592941 241.863889 
L 42.603094 241.707777 
L 48.613246 241.260259 
L 54.623398 240.580775 
L 78.664008 237.502326 
L 84.67416 237.12689 
L 90.684312 237.025963 
L 96.694465 237.196265 
L 102.704617 237.598313 
L 110.718154 238.374289 
L 124.741842 239.817328 
L 132.755379 240.381786 
L 138.765531 240.604837 
L 146.779068 240.643174 
L 156.795988 240.41282 
L 170.819677 240.101976 
L 178.833214 240.184615 
L 184.843366 240.460301 
L 188.850134 240.888092 
L 190.853518 241.266089 
L 192.856902 241.808083 
L 194.860286 242.531166 
L 200.870439 245.11226 
L 202.873823 245.634582 
L 204.877207 245.778154 
L 206.880591 245.545597 
L 210.887359 244.427937 
L 212.890744 243.851272 
L 214.894128 243.404325 
L 216.897512 243.111586 
L 220.90428 242.871173 
L 232.924585 242.569364 
L 240.938121 242.016765 
L 250.955042 241.046822 
L 262.975346 239.885918 
L 270.988883 239.338956 
L 279.002419 239.063897 
L 287.015956 239.051784 
L 297.032876 239.283519 
L 313.059949 239.679543 
L 323.07687 239.66484 
L 333.093791 239.418784 
L 353.127632 238.828127 
L 363.144552 238.819066 
L 373.161473 239.063192 
L 395.198698 239.763249 
L 403.212235 239.787207 
L 413.229155 239.593668 
L 427.252844 239.285305 
L 433.262996 239.349038 
L 439.273149 239.647682 
L 445.283301 240.244137 
L 449.290069 240.82557 
L 455.300222 241.976537 
L 461.310374 243.433625 
L 461.8 243.566371 
L 461.8 243.566371 
" clip-path="url(#pb3ec886d6f)" style="fill: none; stroke: #000000; stroke-opacity: 0.7; stroke-width: 0.75; stroke-linecap: square"/>
   </g>
   <g id="line2d_57">
    <path d="M 36.592941 235.346263 
L 42.603094 235.201396 
L 48.613246 234.785821 
L 54.623398 234.15389 
L 68.647087 232.326615 
L 76.660624 231.433371 
L 82.670776 230.987128 
L 88.680928 230.785777 
L 94.691081 230.840525 
L 100.701233 231.128624 
L 108.714769 231.783596 
L 130.751995 233.828299 
L 138.765531 234.236996 
L 146.779068 234.398597 
L 158.799372 234.350213 
L 170.819677 234.330941 
L 178.833214 234.517539 
L 184.843366 234.831679 
L 188.850134 235.264415 
L 190.853518 235.638676 
L 192.856902 236.17291 
L 194.860286 236.884354 
L 200.870439 239.409321 
L 202.873823 239.906748 
L 204.877207 240.022843 
L 206.880591 239.760585 
L 210.887359 238.578305 
L 212.890744 237.967487 
L 214.894128 237.485672 
L 216.897512 237.157738 
L 220.90428 236.847431 
L 232.924585 236.363443 
L 240.938121 235.731421 
L 266.982115 233.308755 
L 274.995651 232.956154 
L 283.009188 232.891769 
L 291.022724 233.063161 
L 319.070102 233.912752 
L 329.087022 233.83443 
L 363.144552 233.221418 
L 373.161473 233.434562 
L 397.202082 234.090164 
L 407.219003 234.052227 
L 431.259612 233.723788 
L 437.269765 233.947033 
L 443.279917 234.433351 
L 449.290069 235.224723 
L 455.300222 236.331328 
L 461.8 237.854174 
L 461.8 237.854174 
" clip-path="url(#pb3ec886d6f)" style="fill: none; stroke: #000000; stroke-opacity: 0.7; stroke-width: 0.75; stroke-linecap: square"/>
   </g>
   <g id="line2d_58">
    <path d="M 36.592941 228.912359 
L 42.603094 228.751649 
L 48.613246 228.290663 
L 54.623398 227.589799 
L 66.643703 225.850292 
L 74.657239 224.792124 
L 80.667392 224.216889 
L 86.677544 223.89974 
L 92.687696 223.864852 
L 98.697849 224.097601 
L 104.708001 224.548546 
L 114.724922 225.574143 
L 124.741842 226.589549 
L 132.755379 227.166184 
L 138.765531 227.400897 
L 146.779068 227.456423 
L 156.795988 227.248826 
L 168.816293 226.985764 
L 176.829829 227.029214 
L 184.843366 227.341225 
L 190.853518 227.82243 
L 194.860286 228.47677 
L 196.863671 229.012501 
L 198.867055 229.724087 
L 204.877207 232.346026 
L 206.880591 232.924095 
L 208.883975 233.128379 
L 210.887359 232.94151 
L 212.890744 232.453072 
L 216.897512 231.19194 
L 218.900896 230.679136 
L 220.90428 230.315955 
L 224.911048 229.945116 
L 236.931353 229.315856 
L 244.944889 228.575438 
L 266.982115 226.256006 
L 274.995651 225.764238 
L 281.005804 225.597747 
L 289.01934 225.623756 
L 299.036261 225.92304 
L 315.063334 226.438441 
L 325.080254 226.489872 
L 335.097175 226.294716 
L 359.137784 225.684652 
L 369.154705 225.737201 
L 383.178394 226.1083 
L 397.202082 226.432815 
L 407.219003 226.425948 
L 433.262996 226.1441 
L 439.273149 226.401906 
L 445.283301 226.920564 
L 451.293454 227.735943 
L 457.303606 228.852363 
L 461.8 229.869694 
L 461.8 229.869694 
" clip-path="url(#pb3ec886d6f)" style="fill: none; stroke: #000000; stroke-opacity: 0.7; stroke-width: 0.75; stroke-linecap: square"/>
   </g>
   <g id="line2d_59">
    <path d="M 36.592941 222.365893 
L 42.603094 222.217192 
L 48.613246 221.790316 
L 54.623398 221.140239 
L 66.643703 219.518769 
L 74.657239 218.521936 
L 80.667392 217.971013 
L 86.677544 217.655647 
L 92.687696 217.600694 
L 98.697849 217.796157 
L 104.708001 218.200552 
L 114.724922 219.155853 
L 126.745226 220.326403 
L 134.758763 220.888493 
L 142.772299 221.199287 
L 150.785836 221.288558 
L 174.826445 221.324949 
L 182.839982 221.616541 
L 188.850134 221.994527 
L 192.856902 222.438537 
L 194.860286 222.801932 
L 196.863671 223.314756 
L 198.867055 224.000247 
L 204.877207 226.528493 
L 206.880591 227.071583 
L 208.883975 227.239744 
L 210.887359 227.016054 
L 212.890744 226.490561 
L 216.897512 225.156323 
L 218.900896 224.608303 
L 220.90428 224.211326 
L 224.911048 223.778496 
L 238.934737 222.854311 
L 248.951658 221.830727 
L 262.975346 220.386262 
L 270.988883 219.820958 
L 276.999035 219.587426 
L 285.012572 219.533434 
L 293.026108 219.71669 
L 321.073486 220.620662 
L 331.090406 220.583374 
L 365.147936 220.110587 
L 377.168241 220.361279 
L 395.198698 220.796701 
L 405.215619 220.808819 
L 421.242692 220.515617 
L 429.256228 220.455556 
L 435.266381 220.579978 
L 441.276533 220.923431 
L 447.286685 221.535065 
L 453.296838 222.438288 
L 459.30699 223.624927 
L 461.8 224.193856 
L 461.8 224.193856 
" clip-path="url(#pb3ec886d6f)" style="fill: none; stroke: #000000; stroke-opacity: 0.7; stroke-width: 0.75; stroke-linecap: square"/>
   </g>
   <g id="line2d_60">
    <path d="M 36.592941 215.973958 
L 40.599709 215.898127 
L 46.609862 215.511987 
L 52.620014 214.84644 
L 60.633551 213.675742 
L 72.653855 211.852372 
L 78.664008 211.149498 
L 84.67416 210.697076 
L 90.684312 210.535757 
L 96.694465 210.666075 
L 102.704617 211.050409 
L 110.718154 211.836941 
L 126.745226 213.561746 
L 134.758763 214.137739 
L 140.768915 214.369458 
L 148.782452 214.433196 
L 162.806141 214.202896 
L 172.823061 214.16189 
L 180.836598 214.387181 
L 188.850134 214.876885 
L 194.860286 215.448385 
L 198.867055 216.110362 
L 200.870439 216.629316 
L 202.873823 217.315752 
L 208.883975 219.922817 
L 210.887359 220.539099 
L 212.890744 220.789901 
L 214.894128 220.637349 
L 216.897512 220.153147 
L 222.907664 218.197622 
L 224.911048 217.744126 
L 228.917816 217.203273 
L 242.941505 215.926649 
L 252.958426 214.637899 
L 264.978731 213.121443 
L 272.992267 212.385496 
L 279.002419 212.046674 
L 285.012572 211.897018 
L 293.026108 211.950499 
L 305.046413 212.346112 
L 319.070102 212.778588 
L 329.087022 212.841791 
L 341.107327 212.666545 
L 357.1344 212.417128 
L 367.151321 212.476359 
L 379.171625 212.785179 
L 397.202082 213.255019 
L 407.219003 213.259336 
L 435.266381 212.973752 
L 441.276533 213.25836 
L 447.286685 213.800994 
L 453.296838 214.62947 
L 459.30699 215.740459 
L 461.8 216.278934 
L 461.8 216.278934 
" clip-path="url(#pb3ec886d6f)" style="fill: none; stroke: #000000; stroke-opacity: 0.7; stroke-width: 0.75; stroke-linecap: square"/>
   </g>
   <g id="line2d_61">
    <path d="M 36.592941 209.361956 
L 42.603094 209.209558 
L 48.613246 208.771734 
L 54.623398 208.103883 
L 64.640319 206.714887 
L 74.657239 205.388353 
L 80.667392 204.801966 
L 86.677544 204.45126 
L 92.687696 204.363048 
L 98.697849 204.529312 
L 104.708001 204.910464 
L 112.721538 205.641194 
L 128.748611 207.193815 
L 136.762147 207.729216 
L 144.775684 208.029586 
L 154.792604 208.150991 
L 170.819677 208.278045 
L 178.833214 208.541638 
L 186.84675 208.996366 
L 194.860286 209.6662 
L 198.867055 210.278615 
L 200.870439 210.767562 
L 202.873823 211.42109 
L 208.883975 213.916947 
L 210.887359 214.49375 
L 212.890744 214.704781 
L 214.894128 214.512692 
L 216.897512 213.989736 
L 222.907664 211.927543 
L 224.911048 211.4432 
L 228.917816 210.849987 
L 246.948274 209.036553 
L 262.975346 207.136295 
L 270.988883 206.451131 
L 276.999035 206.134762 
L 283.009188 205.996052 
L 291.022724 206.053018 
L 301.039645 206.374537 
L 317.066718 206.923647 
L 327.083638 207.038675 
L 339.103943 206.934065 
L 357.1344 206.753325 
L 367.151321 206.871988 
L 381.175009 207.291141 
L 395.198698 207.66358 
L 405.215619 207.692245 
L 417.235924 207.465609 
L 429.256228 207.265145 
L 435.266381 207.337845 
L 441.276533 207.615573 
L 447.286685 208.149027 
L 453.296838 208.964463 
L 459.30699 210.057768 
L 461.8 210.587531 
L 461.8 210.587531 
" clip-path="url(#pb3ec886d6f)" style="fill: none; stroke: #000000; stroke-opacity: 0.7; stroke-width: 0.75; stroke-linecap: square"/>
   </g>
   <g id="line2d_62">
    <path d="M 36.592941 202.845977 
L 42.603094 202.679239 
L 48.613246 202.200415 
L 54.623398 201.470643 
L 64.640319 199.955915 
L 74.657239 198.515407 
L 80.667392 197.882561 
L 86.677544 197.5076 
L 92.687696 197.417599 
L 98.697849 197.60092 
L 104.708001 198.011109 
L 114.724922 198.995776 
L 126.745226 200.190468 
L 134.758763 200.743752 
L 142.772299 201.026465 
L 150.785836 201.081485 
L 170.819677 201.074877 
L 178.833214 201.368769 
L 186.84675 201.920824 
L 196.863671 202.897369 
L 200.870439 203.432233 
L 202.873823 203.804155 
L 204.877207 204.299132 
L 206.880591 204.949691 
L 210.887359 206.641124 
L 212.890744 207.485043 
L 214.894128 208.116835 
L 216.897512 208.393882 
L 218.900896 208.259072 
L 220.90428 207.765913 
L 226.914432 205.5927 
L 228.917816 205.035792 
L 232.924585 204.301846 
L 252.958426 201.669338 
L 262.975346 200.260569 
L 270.988883 199.380287 
L 276.999035 198.941127 
L 283.009188 198.709138 
L 289.01934 198.670032 
L 297.032876 198.850241 
L 325.080254 199.806364 
L 335.097175 199.802849 
L 363.144552 199.560487 
L 373.161473 199.761833 
L 403.212235 200.573427 
L 415.232539 200.525919 
L 429.256228 200.481888 
L 435.266381 200.648665 
L 441.276533 201.021593 
L 447.286685 201.649118 
L 453.296838 202.554624 
L 459.30699 203.730372 
L 461.8 204.290945 
L 461.8 204.290945 
" clip-path="url(#pb3ec886d6f)" style="fill: none; stroke: #000000; stroke-opacity: 0.7; stroke-width: 0.75; stroke-linecap: square"/>
   </g>
   <g id="line2d_63">
    <path d="M 36.592941 196.160273 
L 42.603094 196.015129 
L 48.613246 195.597987 
L 54.623398 194.961133 
L 64.640319 193.63329 
L 74.657239 192.35581 
L 80.667392 191.782006 
L 86.677544 191.426059 
L 92.687696 191.312735 
L 98.697849 191.434278 
L 104.708001 191.753752 
L 114.724922 192.561541 
L 128.748611 193.740836 
L 136.762147 194.217339 
L 146.779068 194.553466 
L 172.823061 195.174125 
L 180.836598 195.670125 
L 190.853518 196.54151 
L 198.867055 197.383755 
L 202.873823 198.012582 
L 204.877207 198.485869 
L 206.880591 199.112115 
L 210.887359 200.748825 
L 212.890744 201.563272 
L 214.894128 202.164824 
L 216.897512 202.411337 
L 218.900896 202.246167 
L 220.90428 201.723274 
L 226.914432 199.468735 
L 228.917816 198.888559 
L 232.924585 198.1156 
L 262.975346 194.14055 
L 270.988883 193.343124 
L 276.999035 192.963897 
L 283.009188 192.783525 
L 291.022724 192.818757 
L 301.039645 193.162076 
L 319.070102 193.876379 
L 329.087022 194.027022 
L 341.107327 193.967256 
L 359.137784 193.868632 
L 371.158089 194.080818 
L 403.212235 194.935664 
L 415.232539 194.877462 
L 429.256228 194.827761 
L 435.266381 194.988636 
L 441.276533 195.34962 
L 447.286685 195.956877 
L 453.296838 196.832626 
L 459.30699 197.969503 
L 461.8 198.511662 
L 461.8 198.511662 
" clip-path="url(#pb3ec886d6f)" style="fill: none; stroke: #000000; stroke-opacity: 0.7; stroke-width: 0.75; stroke-linecap: square"/>
   </g>
   <g id="line2d_64">
    <path d="M 36.592941 189.598352 
L 42.603094 189.449557 
L 48.613246 189.021553 
L 54.623398 188.366913 
L 64.640319 186.995473 
L 74.657239 185.660213 
L 80.667392 185.046984 
L 86.677544 184.649542 
L 92.687696 184.49387 
L 98.697849 184.573268 
L 104.708001 184.851556 
L 114.724922 185.593557 
L 128.748611 186.683051 
L 136.762147 187.104678 
L 144.775684 187.33179 
L 158.799372 187.449528 
L 168.816293 187.597742 
L 176.829829 187.90863 
L 184.843366 188.430022 
L 196.863671 189.491998 
L 204.877207 190.330623 
L 208.883975 191.059671 
L 210.887359 191.623878 
L 214.894128 193.154421 
L 216.897512 193.94931 
L 218.900896 194.560647 
L 220.90428 194.83718 
L 222.907664 194.703687 
L 224.911048 194.194625 
L 232.924585 191.17553 
L 234.927969 190.677293 
L 238.934737 189.99046 
L 262.975346 186.847987 
L 270.988883 186.052444 
L 276.999035 185.658987 
L 283.009188 185.454016 
L 291.022724 185.446827 
L 301.039645 185.734917 
L 321.073486 186.42744 
L 331.090406 186.522952 
L 347.117479 186.381366 
L 361.141168 186.334679 
L 373.161473 186.551843 
L 403.212235 187.344802 
L 417.235924 187.332367 
L 429.256228 187.357493 
L 437.269765 187.623406 
L 443.279917 188.048244 
L 449.290069 188.708714 
L 455.300222 189.617617 
L 461.8 190.863678 
L 461.8 190.863678 
" clip-path="url(#pb3ec886d6f)" style="fill: none; stroke: #000000; stroke-opacity: 0.7; stroke-width: 0.75; stroke-linecap: square"/>
   </g>
   <g id="line2d_65">
    <path d="M 36.592941 182.962458 
L 42.603094 182.830026 
L 48.613246 182.44888 
L 56.626782 181.637203 
L 78.664008 179.041873 
L 84.67416 178.601794 
L 90.684312 178.368241 
L 96.694465 178.346138 
L 102.704617 178.513657 
L 110.718154 178.955316 
L 136.762147 180.62952 
L 148.782452 181.024524 
L 166.812909 181.530664 
L 176.829829 182.078467 
L 186.84675 182.888483 
L 204.877207 184.644424 
L 208.883975 185.343142 
L 210.887359 185.888995 
L 214.894128 187.37805 
L 216.897512 188.15048 
L 218.900896 188.738666 
L 220.90428 188.991702 
L 222.907664 188.834687 
L 224.911048 188.302407 
L 232.924585 185.199142 
L 234.927969 184.683266 
L 238.934737 183.966553 
L 256.965194 181.539626 
L 264.978731 180.598594 
L 270.988883 180.062283 
L 276.999035 179.707763 
L 283.009188 179.541563 
L 291.022724 179.580474 
L 301.039645 179.912506 
L 321.073486 180.658989 
L 331.090406 180.779199 
L 347.117479 180.685454 
L 361.141168 180.678157 
L 373.161473 180.913718 
L 403.212235 181.683398 
L 417.235924 181.652299 
L 429.256228 181.664054 
L 437.269765 181.918887 
L 443.279917 182.332203 
L 449.290069 182.977362 
L 455.300222 183.866892 
L 461.8 185.088066 
L 461.8 185.088066 
" clip-path="url(#pb3ec886d6f)" style="fill: none; stroke: #000000; stroke-opacity: 0.7; stroke-width: 0.75; stroke-linecap: square"/>
   </g>
   <g id="line2d_66">
    <path d="M 36.592941 176.329845 
L 42.603094 176.199885 
L 48.613246 175.824791 
L 54.623398 175.246952 
L 64.640319 174.014556 
L 76.660624 172.542872 
L 84.67416 171.830423 
L 90.684312 171.514082 
L 96.694465 171.399509 
L 102.704617 171.473412 
L 110.718154 171.804614 
L 124.741842 172.693652 
L 136.762147 173.394593 
L 148.782452 173.866258 
L 172.823061 174.686249 
L 182.839982 175.29464 
L 198.867055 176.562458 
L 210.887359 177.604514 
L 212.890744 177.942172 
L 214.894128 178.417986 
L 218.900896 179.789328 
L 220.90428 180.539201 
L 222.907664 181.138221 
L 224.911048 181.428576 
L 226.914432 181.31775 
L 228.917816 180.820226 
L 232.924585 179.174191 
L 234.927969 178.338723 
L 236.931353 177.634387 
L 238.934737 177.084144 
L 242.941505 176.332669 
L 252.958426 175.023901 
L 264.978731 173.564355 
L 272.992267 172.80919 
L 279.002419 172.423543 
L 285.012572 172.208706 
L 293.026108 172.172675 
L 301.039645 172.362013 
L 337.100559 173.553195 
L 351.124248 173.565616 
L 377.168241 173.54018 
L 403.212235 173.861619 
L 425.24946 174.265089 
L 433.262996 174.60059 
L 441.276533 175.152594 
L 449.290069 175.981068 
L 457.303606 177.109336 
L 461.8 177.867491 
L 461.8 177.867491 
" clip-path="url(#pb3ec886d6f)" style="fill: none; stroke: #000000; stroke-opacity: 0.7; stroke-width: 0.75; stroke-linecap: square"/>
   </g>
   <g id="line2d_67">
    <path d="M 36.592941 169.714415 
L 42.603094 169.599886 
L 48.613246 169.269034 
L 56.626782 168.557367 
L 84.67416 165.681883 
L 90.684312 165.374634 
L 96.694465 165.242504 
L 104.708001 165.32115 
L 112.721538 165.628103 
L 128.748611 166.54921 
L 144.775684 167.399949 
L 170.819677 168.68837 
L 182.839982 169.560703 
L 210.887359 171.847186 
L 212.890744 172.165492 
L 214.894128 172.621012 
L 218.900896 173.950262 
L 220.90428 174.678991 
L 222.907664 175.25722 
L 224.911048 175.527435 
L 226.914432 175.397392 
L 228.917816 174.881835 
L 232.924585 173.20414 
L 234.927969 172.355409 
L 236.931353 171.639709 
L 238.934737 171.080098 
L 242.941505 170.316084 
L 250.955042 169.262102 
L 264.978731 167.604728 
L 272.992267 166.895072 
L 281.005804 166.457088 
L 289.01934 166.303647 
L 297.032876 166.393394 
L 309.053181 166.805174 
L 327.083638 167.461724 
L 339.103943 167.679216 
L 361.141168 167.774681 
L 381.175009 167.976947 
L 431.259612 168.791385 
L 439.273149 169.248762 
L 447.286685 169.979618 
L 453.296838 170.729899 
L 461.310374 171.993714 
L 461.8 172.081214 
L 461.8 172.081214 
" clip-path="url(#pb3ec886d6f)" style="fill: none; stroke: #000000; stroke-opacity: 0.7; stroke-width: 0.75; stroke-linecap: square"/>
   </g>
   <g id="line2d_68">
    <path d="M 36.592941 163.146188 
L 42.603094 163.022548 
L 48.613246 162.664942 
L 56.626782 161.893296 
L 68.647087 160.409366 
L 78.664008 159.243945 
L 86.677544 158.566737 
L 92.687696 158.266189 
L 98.697849 158.155186 
L 106.711385 158.278496 
L 114.724922 158.642331 
L 128.748611 159.557972 
L 146.779068 160.678682 
L 180.836598 162.605809 
L 204.877207 164.198978 
L 214.894128 164.705 
L 216.897512 164.939903 
L 218.900896 165.305314 
L 220.90428 165.823718 
L 226.914432 167.708897 
L 228.917816 167.990985 
L 230.921201 167.885683 
L 232.924585 167.387442 
L 234.927969 166.596098 
L 238.934737 164.772923 
L 240.938121 164.000484 
L 242.941505 163.38988 
L 246.948274 162.562801 
L 252.958426 161.752721 
L 264.978731 160.426949 
L 272.992267 159.768142 
L 281.005804 159.364126 
L 289.01934 159.221337 
L 297.032876 159.29611 
L 311.056565 159.708993 
L 327.083638 160.142786 
L 341.107327 160.262571 
L 371.158089 160.361818 
L 389.188546 160.742511 
L 413.229155 161.232819 
L 429.256228 161.566848 
L 437.269765 161.902231 
L 445.283301 162.453134 
L 453.296838 163.275136 
L 461.310374 164.384438 
L 461.8 164.462531 
L 461.8 164.462531 
" clip-path="url(#pb3ec886d6f)" style="fill: none; stroke: #000000; stroke-opacity: 0.7; stroke-width: 0.75; stroke-linecap: square"/>
   </g>
   <g id="line2d_69">
    <path d="M 36.592941 156.649429 
L 42.603094 156.534391 
L 48.613246 156.201868 
L 56.626782 155.485426 
L 70.650471 153.881292 
L 80.667392 152.859206 
L 88.680928 152.305749 
L 94.691081 152.085406 
L 102.704617 152.049218 
L 110.718154 152.258162 
L 122.738458 152.843933 
L 152.78922 154.407784 
L 166.812909 155.199876 
L 178.833214 156.116299 
L 206.880591 158.462743 
L 214.894128 158.965423 
L 216.897512 159.214391 
L 218.900896 159.59062 
L 220.90428 160.11661 
L 226.914432 162.005837 
L 228.917816 162.28345 
L 230.921201 162.171051 
L 232.924585 161.663306 
L 234.927969 160.860293 
L 238.934737 159.008344 
L 240.938121 158.21937 
L 242.941505 157.591196 
L 246.948274 156.72708 
L 252.958426 155.861136 
L 262.975346 154.657212 
L 270.988883 153.908542 
L 279.002419 153.433491 
L 287.015956 153.2484 
L 295.029492 153.311833 
L 307.049797 153.686658 
L 325.080254 154.265806 
L 337.100559 154.416816 
L 373.161473 154.663266 
L 419.239308 155.645979 
L 431.259612 155.869653 
L 439.273149 156.20957 
L 447.286685 156.803124 
L 453.296838 157.448291 
L 459.30699 158.271075 
L 461.8 158.663389 
L 461.8 158.663389 
" clip-path="url(#pb3ec886d6f)" style="fill: none; stroke: #000000; stroke-opacity: 0.7; stroke-width: 0.75; stroke-linecap: square"/>
   </g>
   <g id="line2d_70">
    <path d="M 36.592941 149.994794 
L 42.603094 149.878252 
L 48.613246 149.540982 
L 56.626782 148.812028 
L 68.647087 147.402797 
L 78.664008 146.28062 
L 86.677544 145.608297 
L 92.687696 145.288804 
L 100.701233 145.124234 
L 108.714769 145.226336 
L 118.73169 145.617173 
L 158.799372 147.709952 
L 172.823061 148.596241 
L 188.850134 149.883335 
L 200.870439 150.800724 
L 208.883975 151.210563 
L 220.90428 151.689882 
L 222.907664 151.97927 
L 224.911048 152.418698 
L 230.921201 154.16858 
L 232.924585 154.462797 
L 234.927969 154.384745 
L 236.931353 153.908852 
L 238.934737 153.118134 
L 242.941505 151.219603 
L 244.944889 150.389714 
L 246.948274 149.725162 
L 248.951658 149.216871 
L 252.958426 148.513221 
L 258.968578 147.770096 
L 266.982115 146.97656 
L 274.995651 146.417751 
L 283.009188 146.128782 
L 291.022724 146.089836 
L 301.039645 146.289418 
L 325.080254 146.918466 
L 337.100559 146.973949 
L 369.154705 146.954826 
L 385.181778 147.302701 
L 411.225771 147.899083 
L 429.256228 148.307036 
L 437.269765 148.690391 
L 445.283301 149.310487 
L 453.296838 150.21454 
L 461.310374 151.401446 
L 461.8 151.483445 
L 461.8 151.483445 
" clip-path="url(#pb3ec886d6f)" style="fill: none; stroke: #000000; stroke-opacity: 0.7; stroke-width: 0.75; stroke-linecap: square"/>
   </g>
   <g id="line2d_71">
    <path d="M 36.592941 143.476712 
L 42.603094 143.369532 
L 48.613246 143.059446 
L 56.626782 142.389691 
L 70.650471 140.876955 
L 80.667392 139.891561 
L 88.680928 139.333367 
L 96.694465 139.037902 
L 104.708001 138.998799 
L 114.724922 139.229875 
L 130.751995 139.912351 
L 158.799372 141.303301 
L 170.819677 142.155553 
L 182.839982 143.251569 
L 200.870439 144.932215 
L 208.883975 145.424361 
L 220.90428 145.964141 
L 222.907664 146.25608 
L 224.911048 146.69606 
L 230.921201 148.43671 
L 232.924585 148.724672 
L 234.927969 148.639035 
L 236.931353 148.154392 
L 238.934737 147.353937 
L 244.944889 144.592149 
L 246.948274 143.915677 
L 248.951658 143.395347 
L 252.958426 142.66789 
L 258.968578 141.89174 
L 266.982115 141.063295 
L 274.995651 140.482612 
L 283.009188 140.183896 
L 291.022724 140.143474 
L 301.039645 140.345172 
L 325.080254 140.9658 
L 339.103943 141.01537 
L 363.144552 141.030699 
L 377.168241 141.336694 
L 409.222387 142.206503 
L 431.259612 142.632035 
L 439.273149 143.029 
L 447.286685 143.691479 
L 453.296838 144.390367 
L 461.310374 145.587211 
L 461.8 145.670599 
L 461.8 145.670599 
" clip-path="url(#pb3ec886d6f)" style="fill: none; stroke: #000000; stroke-opacity: 0.7; stroke-width: 0.75; stroke-linecap: square"/>
   </g>
   <g id="line2d_72">
    <path d="M 36.592941 136.567491 
L 42.603094 136.480585 
L 50.61663 136.109039 
L 58.630166 135.497798 
L 72.653855 134.124142 
L 84.67416 132.994128 
L 92.687696 132.419512 
L 100.701233 132.048274 
L 108.714769 131.896384 
L 116.728306 131.952961 
L 126.745226 132.273243 
L 136.762147 132.808544 
L 148.782452 133.655499 
L 164.809525 135.023998 
L 192.856902 137.507305 
L 202.873823 138.102554 
L 210.887359 138.338447 
L 224.911048 138.462571 
L 226.914432 138.680734 
L 228.917816 139.051096 
L 236.931353 141.051062 
L 238.934737 141.034245 
L 240.938121 140.621525 
L 242.941505 139.877141 
L 248.951658 137.152532 
L 250.955042 136.473405 
L 252.958426 135.958144 
L 256.965194 135.269559 
L 262.975346 134.585966 
L 272.992267 133.706852 
L 281.005804 133.216097 
L 289.01934 132.935246 
L 299.036261 132.853479 
L 311.056565 133.031683 
L 343.110711 133.684233 
L 363.144552 133.759242 
L 391.19193 133.871512 
L 407.219003 134.161972 
L 419.239308 134.579703 
L 429.256228 135.126446 
L 439.273149 135.912873 
L 447.286685 136.741582 
L 457.303606 138.030831 
L 461.8 138.692903 
L 461.8 138.692903 
" clip-path="url(#pb3ec886d6f)" style="fill: none; stroke: #000000; stroke-opacity: 0.7; stroke-width: 0.75; stroke-linecap: square"/>
   </g>
   <g id="line2d_73">
    <path d="M 36.592941 130.133274 
L 44.606478 129.985415 
L 52.620014 129.564933 
L 62.636935 128.757246 
L 86.677544 126.618388 
L 94.691081 126.145829 
L 102.704617 125.87154 
L 110.718154 125.796323 
L 120.735074 125.949258 
L 130.751995 126.320994 
L 142.772299 126.987873 
L 154.792604 127.860618 
L 168.816293 129.118065 
L 198.867055 131.961152 
L 206.880591 132.419694 
L 214.894128 132.615078 
L 222.907664 132.663368 
L 224.911048 132.770029 
L 226.914432 132.992203 
L 228.917816 133.364294 
L 236.931353 135.350537 
L 238.934737 135.325902 
L 240.938121 134.903983 
L 242.941505 134.149243 
L 248.951658 131.388857 
L 250.955042 130.697008 
L 252.958426 130.169003 
L 256.965194 129.455711 
L 262.975346 128.739772 
L 270.988883 127.985968 
L 279.002419 127.434938 
L 287.015956 127.109125 
L 295.029492 126.993603 
L 305.046413 127.072643 
L 351.124248 127.802193 
L 381.175009 128.036868 
L 401.208851 128.447203 
L 419.239308 129.028034 
L 431.259612 129.652226 
L 441.276533 130.427134 
L 449.290069 131.259093 
L 457.303606 132.290007 
L 461.8 132.950437 
L 461.8 132.950437 
" clip-path="url(#pb3ec886d6f)" style="fill: none; stroke: #000000; stroke-opacity: 0.7; stroke-width: 0.75; stroke-linecap: square"/>
   </g>
   <g id="line2d_74">
    <path d="M 36.592941 123.295829 
L 44.606478 123.175446 
L 52.620014 122.827355 
L 62.636935 122.131004 
L 76.660624 120.881556 
L 92.687696 119.509003 
L 102.704617 118.903518 
L 110.718154 118.634782 
L 118.73169 118.586353 
L 126.745226 118.766837 
L 134.758763 119.168999 
L 142.772299 119.771044 
L 152.78922 120.750117 
L 168.816293 122.606033 
L 182.839982 124.175639 
L 192.856902 125.054383 
L 200.870439 125.523051 
L 208.883975 125.739671 
L 216.897512 125.68831 
L 228.917816 125.438445 
L 230.921201 125.587549 
L 232.924585 125.88906 
L 236.931353 126.912574 
L 238.934737 127.459462 
L 240.938121 127.827204 
L 242.941505 127.870471 
L 244.944889 127.52358 
L 246.948274 126.830803 
L 252.958426 124.121739 
L 254.96181 123.42893 
L 256.965194 122.907792 
L 260.971962 122.241568 
L 266.982115 121.646946 
L 276.999035 120.945847 
L 287.015956 120.514977 
L 297.032876 120.350732 
L 309.053181 120.433934 
L 327.083638 120.847243 
L 351.124248 121.349372 
L 403.212235 122.169588 
L 415.232539 122.695231 
L 425.24946 123.336326 
L 435.266381 124.193972 
L 445.283301 125.282409 
L 455.300222 126.592533 
L 461.8 127.545166 
L 461.8 127.545166 
" clip-path="url(#pb3ec886d6f)" style="fill: none; stroke: #000000; stroke-opacity: 0.7; stroke-width: 0.75; stroke-linecap: square"/>
   </g>
   <g id="line2d_75">
    <path d="M 36.592941 117.017189 
L 44.606478 116.882831 
L 52.620014 116.498394 
L 62.636935 115.748422 
L 92.687696 113.210724 
L 102.704617 112.721931 
L 110.718154 112.537214 
L 118.73169 112.535574 
L 128.748611 112.773261 
L 138.765531 113.251738 
L 148.782452 113.947662 
L 160.802756 115.036279 
L 174.826445 116.556587 
L 192.856902 118.503073 
L 200.870439 119.171172 
L 208.883975 119.612396 
L 216.897512 119.773619 
L 228.917816 119.752503 
L 230.921201 119.925249 
L 232.924585 120.24591 
L 236.931353 121.294329 
L 238.934737 121.847163 
L 240.938121 122.216715 
L 242.941505 122.257898 
L 244.944889 121.905273 
L 246.948274 121.203432 
L 252.958426 118.450562 
L 254.96181 117.738854 
L 256.965194 117.197308 
L 260.971962 116.487258 
L 266.982115 115.824676 
L 274.995651 115.160125 
L 283.009188 114.685442 
L 291.022724 114.407386 
L 301.039645 114.301884 
L 313.059949 114.414146 
L 377.168241 115.554729 
L 395.198698 116.156369 
L 413.229155 116.975611 
L 427.252844 117.844585 
L 437.269765 118.67594 
L 447.286685 119.741872 
L 457.303606 121.061185 
L 461.8 121.729959 
L 461.8 121.729959 
" clip-path="url(#pb3ec886d6f)" style="fill: none; stroke: #000000; stroke-opacity: 0.7; stroke-width: 0.75; stroke-linecap: square"/>
   </g>
   <g id="line2d_76">
    <path d="M 36.592941 110.218007 
L 44.606478 110.096747 
L 52.620014 109.747641 
L 62.636935 109.056097 
L 80.667392 107.483053 
L 92.687696 106.524747 
L 102.704617 105.93887 
L 112.721538 105.613355 
L 120.735074 105.561287 
L 128.748611 105.701018 
L 136.762147 106.032783 
L 144.775684 106.55186 
L 154.792604 107.444932 
L 164.809525 108.561731 
L 194.860286 112.154799 
L 202.873823 112.797476 
L 208.883975 113.098652 
L 214.894128 113.222447 
L 220.90428 113.161292 
L 232.924585 112.778805 
L 234.927969 112.875057 
L 236.931353 113.116167 
L 238.934737 113.51624 
L 242.941505 114.559766 
L 244.944889 114.935543 
L 246.948274 115.008512 
L 248.951658 114.69554 
L 250.955042 114.021636 
L 258.968578 110.460847 
L 260.971962 109.884533 
L 264.978731 109.138548 
L 270.988883 108.485135 
L 279.002419 107.880383 
L 287.015956 107.485456 
L 295.029492 107.287289 
L 305.046413 107.259276 
L 321.073486 107.479976 
L 347.117479 107.81487 
L 379.171625 108.159945 
L 395.198698 108.58874 
L 409.222387 109.17423 
L 421.242692 109.877056 
L 431.259612 110.653316 
L 441.276533 111.646156 
L 451.293454 112.877867 
L 461.8 114.410232 
L 461.8 114.410232 
" clip-path="url(#pb3ec886d6f)" style="fill: none; stroke: #000000; stroke-opacity: 0.7; stroke-width: 0.75; stroke-linecap: square"/>
   </g>
   <g id="line2d_77">
    <path d="M 36.592941 103.900068 
L 44.606478 103.771212 
L 52.620014 103.402637 
L 62.636935 102.683933 
L 94.691081 100.11442 
L 104.708001 99.665319 
L 114.724922 99.472295 
L 124.741842 99.530475 
L 134.758763 99.830157 
L 144.775684 100.370967 
L 154.792604 101.158228 
L 164.809525 102.182757 
L 176.829829 103.650752 
L 194.860286 105.889233 
L 202.873823 106.663666 
L 208.883975 107.07391 
L 214.894128 107.304963 
L 220.90428 107.340192 
L 234.927969 107.199162 
L 236.931353 107.449918 
L 238.934737 107.856779 
L 242.941505 108.905563 
L 244.944889 109.280017 
L 246.948274 109.349226 
L 248.951658 109.030213 
L 250.955042 108.348188 
L 258.968578 104.738341 
L 260.971962 104.146764 
L 264.978731 103.368265 
L 270.988883 102.664308 
L 279.002419 101.996247 
L 287.015956 101.549211 
L 295.029492 101.312121 
L 305.046413 101.249817 
L 321.073486 101.426597 
L 349.120864 101.715261 
L 369.154705 101.952578 
L 383.178394 102.320241 
L 399.205466 102.972928 
L 415.232539 103.846554 
L 427.252844 104.689093 
L 437.269765 105.579053 
L 447.286685 106.691805 
L 457.303606 108.045196 
L 461.8 108.724788 
L 461.8 108.724788 
" clip-path="url(#pb3ec886d6f)" style="fill: none; stroke: #000000; stroke-opacity: 0.7; stroke-width: 0.75; stroke-linecap: square"/>
   </g>
   <g id="line2d_78">
    <path d="M 36.592941 96.876316 
L 44.606478 96.785714 
L 54.623398 96.431158 
L 64.640319 95.853436 
L 78.664008 94.80603 
L 102.704617 92.957567 
L 112.721538 92.393736 
L 120.735074 92.120816 
L 128.748611 92.06089 
L 136.762147 92.262095 
L 142.772299 92.607379 
L 148.782452 93.12883 
L 154.792604 93.824722 
L 162.806141 94.998411 
L 172.823061 96.756153 
L 190.853518 100.013515 
L 196.863671 100.890728 
L 202.873823 101.564965 
L 208.883975 101.992687 
L 214.894128 102.147582 
L 220.90428 102.023647 
L 226.914432 101.637425 
L 236.931353 100.738321 
L 238.934737 100.695539 
L 240.938121 100.792255 
L 242.941505 101.05109 
L 248.951658 102.191408 
L 250.955042 102.23682 
L 252.958426 101.91088 
L 254.96181 101.218325 
L 258.968578 99.219985 
L 260.971962 98.231809 
L 262.975346 97.399975 
L 264.978731 96.753991 
L 266.982115 96.27342 
L 270.988883 95.640244 
L 276.999035 95.057116 
L 285.012572 94.570386 
L 293.026108 94.325725 
L 303.043029 94.251698 
L 337.100559 94.199524 
L 361.141168 94.01037 
L 373.161473 94.162861 
L 385.181778 94.530556 
L 401.208851 95.249912 
L 419.239308 96.263686 
L 431.259612 97.156465 
L 441.276533 98.146579 
L 449.290069 99.142877 
L 459.30699 100.641208 
L 461.8 101.051366 
L 461.8 101.051366 
" clip-path="url(#pb3ec886d6f)" style="fill: none; stroke: #000000; stroke-opacity: 0.7; stroke-width: 0.75; stroke-linecap: square"/>
   </g>
   <g id="line2d_79">
    <path d="M 36.592941 90.676895 
L 44.606478 90.567158 
L 52.620014 90.251503 
L 62.636935 89.62698 
L 80.667392 88.200448 
L 94.691081 87.174371 
L 106.711385 86.536295 
L 116.728306 86.236396 
L 126.745226 86.18725 
L 134.758763 86.357244 
L 142.772299 86.739104 
L 150.785836 87.351683 
L 158.799372 88.199108 
L 166.812909 89.260561 
L 178.833214 91.128667 
L 192.856902 93.330928 
L 200.870439 94.362425 
L 206.880591 94.937031 
L 212.890744 95.298831 
L 218.900896 95.425191 
L 224.911048 95.311056 
L 232.924585 94.849452 
L 236.931353 94.658797 
L 238.934737 94.679357 
L 240.938121 94.836824 
L 242.941505 95.153345 
L 248.951658 96.443984 
L 250.955042 96.530756 
L 252.958426 96.241364 
L 254.96181 95.580349 
L 258.968578 93.629683 
L 260.971962 92.657579 
L 262.975346 91.836692 
L 264.978731 91.196656 
L 266.982115 90.717199 
L 270.988883 90.07268 
L 276.999035 89.443219 
L 285.012572 88.856219 
L 293.026108 88.492944 
L 303.043029 88.285423 
L 319.070102 88.238729 
L 373.161473 88.348262 
L 387.185162 88.787608 
L 403.212235 89.537462 
L 417.235924 90.383642 
L 429.256228 91.320717 
L 439.273149 92.331256 
L 449.290069 93.599207 
L 459.30699 95.116504 
L 461.8 95.525821 
L 461.8 95.525821 
" clip-path="url(#pb3ec886d6f)" style="fill: none; stroke: #000000; stroke-opacity: 0.7; stroke-width: 0.75; stroke-linecap: square"/>
   </g>
   <g id="line2d_80">
    <path d="M 36.592941 84.110682 
L 44.606478 83.98679 
L 52.620014 83.631404 
L 62.636935 82.933004 
L 100.701233 79.912042 
L 110.718154 79.467465 
L 120.735074 79.246502 
L 130.751995 79.269519 
L 138.765531 79.486531 
L 146.779068 79.904983 
L 154.792604 80.544737 
L 162.806141 81.410967 
L 170.819677 82.482745 
L 182.839982 84.346685 
L 196.863671 86.505239 
L 204.877207 87.492092 
L 210.887359 88.026197 
L 216.897512 88.344598 
L 222.907664 88.428391 
L 228.917816 88.276526 
L 236.931353 87.772432 
L 240.938121 87.548304 
L 242.941505 87.542608 
L 244.944889 87.668347 
L 246.948274 87.954156 
L 252.958426 89.273446 
L 254.96181 89.42932 
L 256.965194 89.222599 
L 258.968578 88.636713 
L 260.971962 87.762225 
L 264.978731 85.781384 
L 266.982115 84.945287 
L 268.985499 84.290275 
L 270.988883 83.803139 
L 274.995651 83.169249 
L 281.005804 82.58945 
L 289.01934 82.076809 
L 297.032876 81.78171 
L 307.049797 81.64835 
L 323.07687 81.710439 
L 383.178394 82.257401 
L 405.215619 82.835064 
L 421.242692 83.459826 
L 431.259612 84.060868 
L 439.273149 84.727219 
L 447.286685 85.592145 
L 455.300222 86.660975 
L 461.8 87.661206 
L 461.8 87.661206 
" clip-path="url(#pb3ec886d6f)" style="fill: none; stroke: #000000; stroke-opacity: 0.7; stroke-width: 0.75; stroke-linecap: square"/>
   </g>
   <g id="line2d_81">
    <path d="M 36.592941 77.867743 
L 44.606478 77.728069 
L 52.620014 77.329526 
L 62.636935 76.556966 
L 92.687696 73.987326 
L 102.704617 73.478422 
L 112.721538 73.217563 
L 122.738458 73.181244 
L 132.755379 73.343008 
L 142.772299 73.699865 
L 152.78922 74.277522 
L 162.806141 75.111258 
L 172.823061 76.21098 
L 184.843366 77.806592 
L 202.873823 80.246952 
L 210.887359 81.087268 
L 216.897512 81.532259 
L 222.907664 81.786062 
L 228.917816 81.834047 
L 236.931353 81.614145 
L 240.938121 81.527925 
L 242.941505 81.587898 
L 244.944889 81.776309 
L 246.948274 82.12125 
L 252.958426 83.591794 
L 254.96181 83.787993 
L 256.965194 83.616026 
L 258.968578 83.059063 
L 260.971962 82.207528 
L 264.978731 80.254299 
L 266.982115 79.422868 
L 268.985499 78.766541 
L 270.988883 78.272272 
L 274.995651 77.607611 
L 281.005804 76.945381 
L 289.01934 76.273537 
L 297.032876 75.793471 
L 307.049797 75.444115 
L 319.070102 75.308336 
L 335.097175 75.400487 
L 361.141168 75.811011 
L 389.188546 76.473398 
L 411.225771 77.172656 
L 423.246076 77.758601 
L 433.262996 78.475446 
L 441.276533 79.249535 
L 449.290069 80.220984 
L 459.30699 81.695062 
L 461.8 82.099552 
L 461.8 82.099552 
" clip-path="url(#pb3ec886d6f)" style="fill: none; stroke: #000000; stroke-opacity: 0.7; stroke-width: 0.75; stroke-linecap: square"/>
   </g>
   <g id="line2d_82">
    <path d="M 36.592941 71.288437 
L 42.603094 71.201752 
L 50.61663 70.832007 
L 58.630166 70.226759 
L 72.653855 68.879183 
L 84.67416 67.774558 
L 94.691081 67.078181 
L 104.708001 66.64048 
L 114.724922 66.437299 
L 126.745226 66.424726 
L 138.765531 66.609674 
L 148.782452 66.941617 
L 158.799372 67.509429 
L 166.812909 68.183156 
L 174.826445 69.069693 
L 184.843366 70.440295 
L 208.883975 73.952475 
L 214.894128 74.590987 
L 220.90428 75.034301 
L 226.914432 75.251454 
L 232.924585 75.229111 
L 238.934737 74.982252 
L 244.944889 74.67877 
L 246.948274 74.674435 
L 248.951658 74.790263 
L 250.955042 75.06019 
L 258.968578 76.622397 
L 260.971962 76.486539 
L 262.975346 75.963006 
L 264.978731 75.12418 
L 270.988883 72.233937 
L 272.992267 71.528028 
L 274.995651 70.993753 
L 279.002419 70.28593 
L 285.012572 69.62423 
L 293.026108 69.017182 
L 301.039645 68.64928 
L 309.053181 68.487302 
L 321.073486 68.507499 
L 367.151321 68.898467 
L 391.19193 69.050387 
L 405.215619 69.33766 
L 417.235924 69.796292 
L 427.252844 70.395249 
L 437.269765 71.247422 
L 445.283301 72.134042 
L 455.300222 73.493189 
L 461.8 74.501026 
L 461.8 74.501026 
" clip-path="url(#pb3ec886d6f)" style="fill: none; stroke: #000000; stroke-opacity: 0.7; stroke-width: 0.75; stroke-linecap: square"/>
   </g>
   <g id="line2d_83">
    <path d="M 36.592941 64.892773 
L 44.606478 64.744392 
L 52.620014 64.322296 
L 62.636935 63.510342 
L 88.680928 61.175661 
L 98.697849 60.599687 
L 108.714769 60.282104 
L 118.73169 60.186014 
L 130.751995 60.289757 
L 142.772299 60.598649 
L 152.78922 61.051157 
L 162.806141 61.749524 
L 170.819677 62.520662 
L 180.836598 63.747826 
L 194.860286 65.785501 
L 206.880591 67.479228 
L 214.894128 68.371312 
L 220.90428 68.839114 
L 226.914432 69.098963 
L 232.924585 69.135369 
L 238.934737 68.959009 
L 244.944889 68.731715 
L 246.948274 68.752815 
L 248.951658 68.893632 
L 250.955042 69.187818 
L 256.965194 70.601039 
L 258.968578 70.834302 
L 260.971962 70.715054 
L 262.975346 70.205888 
L 264.978731 69.379008 
L 270.988883 66.508559 
L 272.992267 65.803555 
L 274.995651 65.267244 
L 279.002419 64.546533 
L 285.012572 63.844352 
L 293.026108 63.149674 
L 301.039645 62.668794 
L 309.053181 62.386797 
L 319.070102 62.258237 
L 333.093791 62.334168 
L 381.175009 63.00648 
L 403.212235 63.464406 
L 415.232539 63.902653 
L 425.24946 64.464774 
L 435.266381 65.277052 
L 443.279917 66.138473 
L 451.293454 67.192007 
L 461.8 68.824194 
L 461.8 68.824194 
" clip-path="url(#pb3ec886d6f)" style="fill: none; stroke: #000000; stroke-opacity: 0.7; stroke-width: 0.75; stroke-linecap: square"/>
   </g>
   <g id="line2d_84">
    <path d="M 36.592941 58.219717 
L 42.603094 58.131471 
L 50.61663 57.755074 
L 58.630166 57.139056 
L 72.653855 55.769377 
L 84.67416 54.652782 
L 94.691081 53.957844 
L 104.708001 53.531711 
L 114.724922 53.341438 
L 128.748611 53.331577 
L 144.775684 53.539627 
L 156.795988 53.916195 
L 164.809525 54.356526 
L 172.823061 55.000318 
L 180.836598 55.865622 
L 190.853518 57.222432 
L 216.897512 60.98744 
L 222.907664 61.58207 
L 228.917816 61.974527 
L 234.927969 62.139325 
L 240.938121 62.071089 
L 250.955042 61.78623 
L 252.958426 61.903912 
L 254.96181 62.170199 
L 258.968578 63.097953 
L 260.971962 63.575827 
L 262.975346 63.859055 
L 264.978731 63.807455 
L 266.982115 63.364568 
L 268.985499 62.584169 
L 274.995651 59.695331 
L 276.999035 58.960943 
L 279.002419 58.400716 
L 283.009188 57.659927 
L 289.01934 56.976554 
L 297.032876 56.348544 
L 305.046413 55.968989 
L 313.059949 55.814523 
L 323.07687 55.856143 
L 361.141168 56.302441 
L 403.212235 56.164186 
L 413.229155 56.485399 
L 423.246076 57.054898 
L 433.262996 57.888507 
L 443.279917 58.980531 
L 453.296838 60.304328 
L 461.8 61.575557 
L 461.8 61.575557 
" clip-path="url(#pb3ec886d6f)" style="fill: none; stroke: #000000; stroke-opacity: 0.7; stroke-width: 0.75; stroke-linecap: square"/>
   </g>
   <g id="line2d_85">
    <path d="M 36.592941 51.809334 
L 44.606478 51.663822 
L 52.620014 51.249453 
L 62.636935 50.450432 
L 88.680928 48.134761 
L 98.697849 47.55715 
L 108.714769 47.234838 
L 118.73169 47.128752 
L 132.755379 47.22925 
L 146.779068 47.551982 
L 156.795988 47.965264 
L 166.812909 48.610969 
L 174.826445 49.335592 
L 182.839982 50.251178 
L 192.856902 51.613242 
L 212.890744 54.446903 
L 220.90428 55.314053 
L 226.914432 55.766724 
L 232.924585 56.017213 
L 238.934737 56.05236 
L 250.955042 55.819111 
L 252.958426 55.956988 
L 254.96181 56.243875 
L 258.968578 57.212987 
L 260.971962 57.711081 
L 262.975346 58.013868 
L 264.978731 57.980912 
L 266.982115 57.555505 
L 268.985499 56.791192 
L 274.995651 53.940208 
L 276.999035 53.214406 
L 279.002419 52.660533 
L 283.009188 51.925427 
L 289.01934 51.232631 
L 297.032876 50.560686 
L 305.046413 50.10966 
L 313.059949 49.870266 
L 323.07687 49.811919 
L 339.103943 50.019062 
L 361.141168 50.282733 
L 405.215619 50.525321 
L 415.232539 50.901117 
L 425.24946 51.515592 
L 435.266381 52.394656 
L 445.283301 53.539523 
L 455.300222 54.923699 
L 461.8 55.925632 
L 461.8 55.925632 
" clip-path="url(#pb3ec886d6f)" style="fill: none; stroke: #000000; stroke-opacity: 0.7; stroke-width: 0.75; stroke-linecap: square"/>
   </g>
   <g id="line2d_86">
    <path d="M 68.103529 48.008606 
L 68.103529 41.472 
" clip-path="url(#pb3ec886d6f)" style="fill: none; stroke: #000000; stroke-opacity: 0.9; stroke-linecap: square"/>
   </g>
   <g id="patch_3">
    <path d="M 57.6 307.584 
L 57.6 41.472 
" style="fill: none; stroke: #000000; stroke-width: 0.7; stroke-linejoin: miter; stroke-linecap: square"/>
   </g>
   <g id="patch_4">
    <path d="M 57.6 307.584 
L 414.72 307.584 
" style="fill: none; stroke: #000000; stroke-width: 0.7; stroke-linejoin: miter; stroke-linecap: square"/>
   </g>
   <g id="text_31">
    <!-- 20dB -->
    <g style="opacity: 0.7" transform="translate(70.204235 46.267022) scale(0.06 -0.06)">
     <defs>
      <path id="Helvetica-64" d="M 769 1634 
Q 769 1097 997 734 
Q 1225 372 1728 372 
Q 2119 372 2370 708 
Q 2622 1044 2622 1672 
Q 2622 2306 2362 2611 
Q 2103 2916 1722 2916 
Q 1297 2916 1033 2591 
Q 769 2266 769 1634 
z
M 1616 3406 
Q 2000 3406 2259 3244 
Q 2409 3150 2600 2916 
L 2600 4606 
L 3141 4606 
L 3141 0 
L 2634 0 
L 2634 466 
Q 2438 156 2169 18 
Q 1900 -119 1553 -119 
Q 994 -119 584 351 
Q 175 822 175 1603 
Q 175 2334 548 2870 
Q 922 3406 1616 3406 
z
" transform="scale(0.015625)"/>
      <path id="Helvetica-42" d="M 2213 2650 
Q 2606 2650 2825 2759 
Q 3169 2931 3169 3378 
Q 3169 3828 2803 3984 
Q 2597 4072 2191 4072 
L 1081 4072 
L 1081 2650 
L 2213 2650 
z
M 2422 531 
Q 2994 531 3238 863 
Q 3391 1072 3391 1369 
Q 3391 1869 2944 2050 
Q 2706 2147 2316 2147 
L 1081 2147 
L 1081 531 
L 2422 531 
z
M 472 4591 
L 2444 4591 
Q 3250 4591 3591 4109 
Q 3791 3825 3791 3453 
Q 3791 3019 3544 2741 
Q 3416 2594 3175 2472 
Q 3528 2338 3703 2169 
Q 4013 1869 4013 1341 
Q 4013 897 3734 538 
Q 3319 0 2413 0 
L 472 0 
L 472 4591 
z
" transform="scale(0.015625)"/>
     </defs>
     <use xlink:href="#Helvetica-32"/>
     <use xlink:href="#Helvetica-30" transform="translate(55.615234 0)"/>
     <use xlink:href="#Helvetica-64" transform="translate(111.230469 0)"/>
     <use xlink:href="#Helvetica-42" transform="translate(166.845703 0)"/>
    </g>
   </g>
   <g id="text_32">
    <!-- MB -->
    <g transform="translate(227.16 35.472) scale(0.12 -0.12)">
     <defs>
      <path id="Helvetica-4d" d="M 472 4591 
L 1363 4591 
L 2681 709 
L 3991 4591 
L 4872 4591 
L 4872 0 
L 4281 0 
L 4281 2709 
Q 4281 2850 4287 3175 
Q 4294 3500 4294 3872 
L 2984 0 
L 2369 0 
L 1050 3872 
L 1050 3731 
Q 1050 3563 1058 3217 
Q 1066 2872 1066 2709 
L 1066 0 
L 472 0 
L 472 4591 
z
" transform="scale(0.015625)"/>
     </defs>
     <use xlink:href="#Helvetica-4d"/>
     <use xlink:href="#Helvetica-42" transform="translate(83.300781 0)"/>
    </g>
   </g>
  </g>
 </g>
 <defs>
  <clipPath id="pb3ec886d6f">
   <rect x="57.6" y="41.472" width="357.12" height="266.112"/>
  </clipPath>
 </defs>
</svg>
