<?xml version="1.0" encoding="utf-8" standalone="no"?>
<!DOCTYPE svg PUBLIC "-//W3C//DTD SVG 1.1//EN"
  "http://www.w3.org/Graphics/SVG/1.1/DTD/svg11.dtd">
<svg xmlns:xlink="http://www.w3.org/1999/xlink" width="460.8pt" height="345.6pt" viewBox="0 0 460.8 345.6" xmlns="http://www.w3.org/2000/svg" version="1.1">
 <metadata>
  <rdf:RDF xmlns:dc="http://purl.org/dc/elements/1.1/" xmlns:cc="http://creativecommons.org/ns#" xmlns:rdf="http://www.w3.org/1999/02/22-rdf-syntax-ns#">
   <cc:Work>
    <dc:type rdf:resource="http://purl.org/dc/dcmitype/StillImage"/>
    <dc:date>2026-04-08T11:55:03.912620</dc:date>
    <dc:format>image/svg+xml</dc:format>
    <dc:creator>
     <cc:Agent>
      <dc:title>Matplotlib v3.10.8, https://matplotlib.org/</dc:title>
     </cc:Agent>
    </dc:creator>
   </cc:Work>
  </rdf:RDF>
 </metadata>
 <defs>
  <style type="text/css">*{stroke-linejoin: round; stroke-linecap: butt}</style>
 </defs>
 <g id="figure_1">
  <g id="patch_1">
   <path d="M 0 345.6 
L 460.8 345.6 
L 460.8 0 
L 0 0 
z
" style="fill: #ffffff"/>
  </g>
  <g id="axes_1">
   <g id="patch_2">
    <path d="M 57.6 307.584 
L 414.72 307.584 
L 414.72 41.472 
L 57.6 41.472 
z
" style="fill: #ffffff"/>
   </g>
   <g id="matplotlib.axis_1">
    <g id="xtick_1">
     <g id="line2d_1">
      <defs>
       <path id="mde03a164b5" d="M 0 0 
L 0 -2 
" style="stroke: #000000; stroke-width: 0.8"/>
      </defs>
      <g>
       <use xlink:href="#mde03a164b5" x="78.607059" y="307.584" style="stroke: #000000; stroke-width: 0.8"/>
      </g>
     </g>
     <g id="text_1">
      <!-- 2000 -->
      <g transform="translate(69.709559 315.32275) scale(0.08 -0.08)">
       <defs>
        <path id="Helvetica-32" d="M 200 0 
Q 231 578 439 1006 
Q 647 1434 1250 1784 
L 1850 2131 
Q 2253 2366 2416 2531 
Q 2672 2791 2672 3125 
Q 2672 3516 2437 3745 
Q 2203 3975 1813 3975 
Q 1234 3975 1013 3538 
Q 894 3303 881 2888 
L 309 2888 
Q 319 3472 525 3841 
Q 891 4491 1816 4491 
Q 2584 4491 2939 4075 
Q 3294 3659 3294 3150 
Q 3294 2613 2916 2231 
Q 2697 2009 2131 1694 
L 1703 1456 
Q 1397 1288 1222 1134 
Q 909 863 828 531 
L 3272 531 
L 3272 0 
L 200 0 
z
" transform="scale(0.015625)"/>
        <path id="Helvetica-30" d="M 1731 4475 
Q 2600 4475 2988 3759 
Q 3288 3206 3288 2244 
Q 3288 1331 3016 734 
Q 2622 -122 1728 -122 
Q 922 -122 528 578 
Q 200 1163 200 2147 
Q 200 2909 397 3456 
Q 766 4475 1731 4475 
z
M 1725 391 
Q 2163 391 2422 778 
Q 2681 1166 2681 2222 
Q 2681 2984 2493 3476 
Q 2306 3969 1766 3969 
Q 1269 3969 1039 3501 
Q 809 3034 809 2125 
Q 809 1441 956 1025 
Q 1181 391 1725 391 
z
" transform="scale(0.015625)"/>
       </defs>
       <use xlink:href="#Helvetica-32"/>
       <use xlink:href="#Helvetica-30" transform="translate(55.615234 0)"/>
       <use xlink:href="#Helvetica-30" transform="translate(111.230469 0)"/>
       <use xlink:href="#Helvetica-30" transform="translate(166.845703 0)"/>
      </g>
     </g>
    </g>
    <g id="xtick_2">
     <g id="line2d_2">
      <g>
       <use xlink:href="#mde03a164b5" x="120.621176" y="307.584" style="stroke: #000000; stroke-width: 0.8"/>
      </g>
     </g>
     <g id="text_2">
      <!-- 4000 -->
      <g transform="translate(111.723676 315.32275) scale(0.08 -0.08)">
       <defs>
        <path id="Helvetica-34" d="M 2116 1584 
L 2116 3613 
L 681 1584 
L 2116 1584 
z
M 2125 0 
L 2125 1094 
L 163 1094 
L 163 1644 
L 2213 4488 
L 2688 4488 
L 2688 1584 
L 3347 1584 
L 3347 1094 
L 2688 1094 
L 2688 0 
L 2125 0 
z
" transform="scale(0.015625)"/>
       </defs>
       <use xlink:href="#Helvetica-34"/>
       <use xlink:href="#Helvetica-30" transform="translate(55.615234 0)"/>
       <use xlink:href="#Helvetica-30" transform="translate(111.230469 0)"/>
       <use xlink:href="#Helvetica-30" transform="translate(166.845703 0)"/>
      </g>
     </g>
    </g>
    <g id="xtick_3">
     <g id="line2d_3">
      <g>
       <use xlink:href="#mde03a164b5" x="162.635294" y="307.584" style="stroke: #000000; stroke-width: 0.8"/>
      </g>
     </g>
     <g id="text_3">
      <!-- 6000 -->
      <g transform="translate(153.737794 315.32275) scale(0.08 -0.08)">
       <defs>
        <path id="Helvetica-36" d="M 1872 4494 
Q 2622 4494 2917 4105 
Q 3213 3716 3213 3303 
L 2656 3303 
Q 2606 3569 2497 3719 
Q 2294 4000 1881 4000 
Q 1409 4000 1131 3564 
Q 853 3128 822 2316 
Q 1016 2600 1309 2741 
Q 1578 2866 1909 2866 
Q 2472 2866 2890 2506 
Q 3309 2147 3309 1434 
Q 3309 825 2912 354 
Q 2516 -116 1781 -116 
Q 1153 -116 697 361 
Q 241 838 241 1966 
Q 241 2800 444 3381 
Q 834 4494 1872 4494 
z
M 1831 384 
Q 2275 384 2495 682 
Q 2716 981 2716 1388 
Q 2716 1731 2519 2042 
Q 2322 2353 1803 2353 
Q 1441 2353 1167 2112 
Q 894 1872 894 1388 
Q 894 963 1142 673 
Q 1391 384 1831 384 
z
" transform="scale(0.015625)"/>
       </defs>
       <use xlink:href="#Helvetica-36"/>
       <use xlink:href="#Helvetica-30" transform="translate(55.615234 0)"/>
       <use xlink:href="#Helvetica-30" transform="translate(111.230469 0)"/>
       <use xlink:href="#Helvetica-30" transform="translate(166.845703 0)"/>
      </g>
     </g>
    </g>
    <g id="xtick_4">
     <g id="line2d_4">
      <g>
       <use xlink:href="#mde03a164b5" x="204.649412" y="307.584" style="stroke: #000000; stroke-width: 0.8"/>
      </g>
     </g>
     <g id="text_4">
      <!-- 8000 -->
      <g transform="translate(195.751912 315.32275) scale(0.08 -0.08)">
       <defs>
        <path id="Helvetica-38" d="M 1741 2600 
Q 2113 2600 2322 2808 
Q 2531 3016 2531 3303 
Q 2531 3553 2331 3762 
Q 2131 3972 1722 3972 
Q 1316 3972 1134 3762 
Q 953 3553 953 3272 
Q 953 2956 1187 2778 
Q 1422 2600 1741 2600 
z
M 1775 384 
Q 2166 384 2423 595 
Q 2681 806 2681 1225 
Q 2681 1659 2415 1884 
Q 2150 2109 1734 2109 
Q 1331 2109 1076 1879 
Q 822 1650 822 1244 
Q 822 894 1055 639 
Q 1288 384 1775 384 
z
M 975 2384 
Q 741 2484 609 2619 
Q 363 2869 363 3269 
Q 363 3769 725 4128 
Q 1088 4488 1753 4488 
Q 2397 4488 2762 4148 
Q 3128 3809 3128 3356 
Q 3128 2938 2916 2678 
Q 2797 2531 2547 2391 
Q 2825 2263 2984 2097 
Q 3281 1784 3281 1284 
Q 3281 694 2884 283 
Q 2488 -128 1763 -128 
Q 1109 -128 657 226 
Q 206 581 206 1256 
Q 206 1653 400 1942 
Q 594 2231 975 2384 
z
" transform="scale(0.015625)"/>
       </defs>
       <use xlink:href="#Helvetica-38"/>
       <use xlink:href="#Helvetica-30" transform="translate(55.615234 0)"/>
       <use xlink:href="#Helvetica-30" transform="translate(111.230469 0)"/>
       <use xlink:href="#Helvetica-30" transform="translate(166.845703 0)"/>
      </g>
     </g>
    </g>
    <g id="xtick_5">
     <g id="line2d_5">
      <g>
       <use xlink:href="#mde03a164b5" x="246.663529" y="307.584" style="stroke: #000000; stroke-width: 0.8"/>
      </g>
     </g>
     <g id="text_5">
      <!-- 10000 -->
      <g transform="translate(235.541654 315.32275) scale(0.08 -0.08)">
       <defs>
        <path id="Helvetica-31" d="M 613 3169 
L 613 3600 
Q 1222 3659 1462 3798 
Q 1703 3938 1822 4456 
L 2266 4456 
L 2266 0 
L 1666 0 
L 1666 3169 
L 613 3169 
z
" transform="scale(0.015625)"/>
       </defs>
       <use xlink:href="#Helvetica-31"/>
       <use xlink:href="#Helvetica-30" transform="translate(55.615234 0)"/>
       <use xlink:href="#Helvetica-30" transform="translate(111.230469 0)"/>
       <use xlink:href="#Helvetica-30" transform="translate(166.845703 0)"/>
       <use xlink:href="#Helvetica-30" transform="translate(222.460938 0)"/>
      </g>
     </g>
    </g>
    <g id="xtick_6">
     <g id="line2d_6">
      <g>
       <use xlink:href="#mde03a164b5" x="288.677647" y="307.584" style="stroke: #000000; stroke-width: 0.8"/>
      </g>
     </g>
     <g id="text_6">
      <!-- 12000 -->
      <g transform="translate(277.555772 315.32275) scale(0.08 -0.08)">
       <use xlink:href="#Helvetica-31"/>
       <use xlink:href="#Helvetica-32" transform="translate(55.615234 0)"/>
       <use xlink:href="#Helvetica-30" transform="translate(111.230469 0)"/>
       <use xlink:href="#Helvetica-30" transform="translate(166.845703 0)"/>
       <use xlink:href="#Helvetica-30" transform="translate(222.460938 0)"/>
      </g>
     </g>
    </g>
    <g id="xtick_7">
     <g id="line2d_7">
      <g>
       <use xlink:href="#mde03a164b5" x="330.691765" y="307.584" style="stroke: #000000; stroke-width: 0.8"/>
      </g>
     </g>
     <g id="text_7">
      <!-- 14000 -->
      <g transform="translate(319.56989 315.32275) scale(0.08 -0.08)">
       <use xlink:href="#Helvetica-31"/>
       <use xlink:href="#Helvetica-34" transform="translate(55.615234 0)"/>
       <use xlink:href="#Helvetica-30" transform="translate(111.230469 0)"/>
       <use xlink:href="#Helvetica-30" transform="translate(166.845703 0)"/>
       <use xlink:href="#Helvetica-30" transform="translate(222.460938 0)"/>
      </g>
     </g>
    </g>
    <g id="xtick_8">
     <g id="line2d_8">
      <g>
       <use xlink:href="#mde03a164b5" x="372.705882" y="307.584" style="stroke: #000000; stroke-width: 0.8"/>
      </g>
     </g>
     <g id="text_8">
      <!-- 16000 -->
      <g transform="translate(361.584007 315.32275) scale(0.08 -0.08)">
       <use xlink:href="#Helvetica-31"/>
       <use xlink:href="#Helvetica-36" transform="translate(55.615234 0)"/>
       <use xlink:href="#Helvetica-30" transform="translate(111.230469 0)"/>
       <use xlink:href="#Helvetica-30" transform="translate(166.845703 0)"/>
       <use xlink:href="#Helvetica-30" transform="translate(222.460938 0)"/>
      </g>
     </g>
    </g>
    <g id="xtick_9">
     <g id="line2d_9">
      <g>
       <use xlink:href="#mde03a164b5" x="414.72" y="307.584" style="stroke: #000000; stroke-width: 0.8"/>
      </g>
     </g>
     <g id="text_9">
      <!-- 18000 -->
      <g transform="translate(403.598125 315.32275) scale(0.08 -0.08)">
       <use xlink:href="#Helvetica-31"/>
       <use xlink:href="#Helvetica-38" transform="translate(55.615234 0)"/>
       <use xlink:href="#Helvetica-30" transform="translate(111.230469 0)"/>
       <use xlink:href="#Helvetica-30" transform="translate(166.845703 0)"/>
       <use xlink:href="#Helvetica-30" transform="translate(222.460938 0)"/>
      </g>
     </g>
    </g>
    <g id="text_10">
     <!-- Frequency [Hz] -->
     <g transform="translate(209.040625 326.76775) scale(0.08 -0.08)">
      <defs>
       <path id="Helvetica-46" d="M 547 4591 
L 3731 4591 
L 3731 4028 
L 1169 4028 
L 1169 2634 
L 3422 2634 
L 3422 2088 
L 1169 2088 
L 1169 0 
L 547 0 
L 547 4591 
z
" transform="scale(0.015625)"/>
       <path id="Helvetica-72" d="M 428 3347 
L 963 3347 
L 963 2769 
Q 1028 2938 1284 3180 
Q 1541 3422 1875 3422 
Q 1891 3422 1928 3419 
Q 1966 3416 2056 3406 
L 2056 2813 
Q 2006 2822 1964 2825 
Q 1922 2828 1872 2828 
Q 1447 2828 1219 2554 
Q 991 2281 991 1925 
L 991 0 
L 428 0 
L 428 3347 
z
" transform="scale(0.015625)"/>
       <path id="Helvetica-65" d="M 1806 3422 
Q 2163 3422 2497 3255 
Q 2831 3088 3006 2822 
Q 3175 2569 3231 2231 
Q 3281 2000 3281 1494 
L 828 1494 
Q 844 984 1069 676 
Q 1294 369 1766 369 
Q 2206 369 2469 659 
Q 2619 828 2681 1050 
L 3234 1050 
Q 3213 866 3089 639 
Q 2966 413 2813 269 
Q 2556 19 2178 -69 
Q 1975 -119 1719 -119 
Q 1094 -119 659 336 
Q 225 791 225 1609 
Q 225 2416 662 2919 
Q 1100 3422 1806 3422 
z
M 2703 1941 
Q 2669 2306 2544 2525 
Q 2313 2931 1772 2931 
Q 1384 2931 1121 2651 
Q 859 2372 844 1941 
L 2703 1941 
z
M 1753 3428 
L 1753 3428 
z
" transform="scale(0.015625)"/>
       <path id="Helvetica-71" d="M 775 1628 
Q 775 1194 897 900 
Q 1113 378 1669 378 
Q 2256 378 2478 928 
Q 2600 1231 2600 1703 
Q 2600 2138 2466 2428 
Q 2238 2925 1663 2925 
Q 1297 2925 1036 2608 
Q 775 2291 775 1628 
z
M 1606 3422 
Q 2022 3422 2306 3213 
Q 2463 3100 2606 2881 
L 2606 3347 
L 3141 3347 
L 3141 -1334 
L 2575 -1334 
L 2575 384 
Q 2434 159 2186 26 
Q 1938 -106 1566 -106 
Q 1031 -106 609 312 
Q 188 731 188 1588 
Q 188 2391 583 2906 
Q 978 3422 1606 3422 
z
" transform="scale(0.015625)"/>
       <path id="Helvetica-75" d="M 975 3347 
L 975 1125 
Q 975 869 1056 706 
Q 1206 406 1616 406 
Q 2203 406 2416 931 
Q 2531 1213 2531 1703 
L 2531 3347 
L 3094 3347 
L 3094 0 
L 2563 0 
L 2569 494 
Q 2459 303 2297 172 
Q 1975 -91 1516 -91 
Q 800 -91 541 388 
Q 400 644 400 1072 
L 400 3347 
L 975 3347 
z
M 1747 3428 
L 1747 3428 
z
" transform="scale(0.015625)"/>
       <path id="Helvetica-6e" d="M 413 3347 
L 947 3347 
L 947 2872 
Q 1184 3166 1450 3294 
Q 1716 3422 2041 3422 
Q 2753 3422 3003 2925 
Q 3141 2653 3141 2147 
L 3141 0 
L 2569 0 
L 2569 2109 
Q 2569 2416 2478 2603 
Q 2328 2916 1934 2916 
Q 1734 2916 1606 2875 
Q 1375 2806 1200 2600 
Q 1059 2434 1017 2257 
Q 975 2081 975 1753 
L 975 0 
L 413 0 
L 413 3347 
z
M 1734 3428 
L 1734 3428 
z
" transform="scale(0.015625)"/>
       <path id="Helvetica-63" d="M 1703 3444 
Q 2269 3444 2623 3169 
Q 2978 2894 3050 2222 
L 2503 2222 
Q 2453 2531 2275 2736 
Q 2097 2941 1703 2941 
Q 1166 2941 934 2416 
Q 784 2075 784 1575 
Q 784 1072 996 728 
Q 1209 384 1666 384 
Q 2016 384 2220 598 
Q 2425 813 2503 1184 
L 3050 1184 
Q 2956 519 2581 211 
Q 2206 -97 1622 -97 
Q 966 -97 575 383 
Q 184 863 184 1581 
Q 184 2463 612 2953 
Q 1041 3444 1703 3444 
z
M 1616 3428 
L 1616 3428 
z
" transform="scale(0.015625)"/>
       <path id="Helvetica-79" d="M 2503 3347 
L 3125 3347 
Q 3006 3025 2597 1878 
Q 2291 1016 2084 472 
Q 1597 -809 1397 -1090 
Q 1197 -1372 709 -1372 
Q 591 -1372 527 -1362 
Q 463 -1353 369 -1328 
L 369 -816 
Q 516 -856 581 -865 
Q 647 -875 697 -875 
Q 853 -875 926 -823 
Q 1000 -772 1050 -697 
Q 1066 -672 1162 -440 
Q 1259 -209 1303 -97 
L 66 3347 
L 703 3347 
L 1600 622 
L 2503 3347 
z
M 1597 3428 
L 1597 3428 
z
" transform="scale(0.015625)"/>
       <path id="Helvetica-20" transform="scale(0.015625)"/>
       <path id="Helvetica-5b" d="M 400 4622 
L 1600 4622 
L 1600 4163 
L 931 4163 
L 931 -800 
L 1600 -800 
L 1600 -1259 
L 400 -1259 
L 400 4622 
z
" transform="scale(0.015625)"/>
       <path id="Helvetica-48" d="M 503 4591 
L 1131 4591 
L 1131 2694 
L 3519 2694 
L 3519 4591 
L 4147 4591 
L 4147 0 
L 3519 0 
L 3519 2147 
L 1131 2147 
L 1131 0 
L 503 0 
L 503 4591 
z
" transform="scale(0.015625)"/>
       <path id="Helvetica-7a" d="M 163 444 
L 2147 2844 
L 309 2844 
L 309 3347 
L 2903 3347 
L 2903 2888 
L 931 503 
L 2963 503 
L 2963 0 
L 163 0 
L 163 444 
z
M 1609 3428 
L 1609 3428 
z
" transform="scale(0.015625)"/>
       <path id="Helvetica-5d" d="M 147 -800 
L 813 -800 
L 813 4163 
L 147 4163 
L 147 4622 
L 1347 4622 
L 1347 -1259 
L 147 -1259 
L 147 -800 
z
" transform="scale(0.015625)"/>
      </defs>
      <use xlink:href="#Helvetica-46"/>
      <use xlink:href="#Helvetica-72" transform="translate(61.083984 0)"/>
      <use xlink:href="#Helvetica-65" transform="translate(94.384766 0)"/>
      <use xlink:href="#Helvetica-71" transform="translate(150 0)"/>
      <use xlink:href="#Helvetica-75" transform="translate(205.615234 0)"/>
      <use xlink:href="#Helvetica-65" transform="translate(261.230469 0)"/>
      <use xlink:href="#Helvetica-6e" transform="translate(316.845703 0)"/>
      <use xlink:href="#Helvetica-63" transform="translate(372.460938 0)"/>
      <use xlink:href="#Helvetica-79" transform="translate(422.460938 0)"/>
      <use xlink:href="#Helvetica-20" transform="translate(472.460938 0)"/>
      <use xlink:href="#Helvetica-5b" transform="translate(500.244141 0)"/>
      <use xlink:href="#Helvetica-48" transform="translate(528.027344 0)"/>
      <use xlink:href="#Helvetica-7a" transform="translate(600.244141 0)"/>
      <use xlink:href="#Helvetica-5d" transform="translate(650.244141 0)"/>
     </g>
    </g>
   </g>
   <g id="matplotlib.axis_2">
    <g id="ytick_1">
     <g id="line2d_10">
      <path d="M 57.6 282.132251 
L 414.72 282.132251 
" clip-path="url(#p280d6fdd93)" style="fill: none; stroke: #b0b0b0; stroke-width: 0.25; stroke-linecap: square"/>
     </g>
     <g id="line2d_11">
      <defs>
       <path id="m285228ee32" d="M 0 0 
L 2 0 
" style="stroke: #000000; stroke-width: 0.8"/>
      </defs>
      <g>
       <use xlink:href="#m285228ee32" x="57.6" y="282.132251" style="stroke: #000000; stroke-width: 0.8"/>
      </g>
     </g>
     <g id="text_11">
      <!-- -40 -->
      <g transform="translate(44.03875 285.001626) scale(0.08 -0.08)">
       <defs>
        <path id="Helvetica-2d" d="M 266 2072 
L 1834 2072 
L 1834 1494 
L 266 1494 
L 266 2072 
z
" transform="scale(0.015625)"/>
       </defs>
       <use xlink:href="#Helvetica-2d"/>
       <use xlink:href="#Helvetica-34" transform="translate(33.300781 0)"/>
       <use xlink:href="#Helvetica-30" transform="translate(88.916016 0)"/>
      </g>
     </g>
    </g>
    <g id="ytick_2">
     <g id="line2d_12">
      <path d="M 57.6 257.449148 
L 414.72 257.449148 
" clip-path="url(#p280d6fdd93)" style="fill: none; stroke: #b0b0b0; stroke-width: 0.25; stroke-linecap: square"/>
     </g>
     <g id="line2d_13">
      <g>
       <use xlink:href="#m285228ee32" x="57.6" y="257.449148" style="stroke: #000000; stroke-width: 0.8"/>
      </g>
     </g>
     <g id="text_12">
      <!-- -30 -->
      <g transform="translate(44.03875 260.318523) scale(0.08 -0.08)">
       <defs>
        <path id="Helvetica-33" d="M 1663 -122 
Q 869 -122 511 314 
Q 153 750 153 1375 
L 741 1375 
Q 778 941 903 744 
Q 1122 391 1694 391 
Q 2138 391 2406 628 
Q 2675 866 2675 1241 
Q 2675 1703 2392 1887 
Q 2109 2072 1606 2072 
Q 1550 2072 1492 2070 
Q 1434 2069 1375 2066 
L 1375 2563 
Q 1463 2553 1522 2550 
Q 1581 2547 1650 2547 
Q 1966 2547 2169 2647 
Q 2525 2822 2525 3272 
Q 2525 3606 2287 3787 
Q 2050 3969 1734 3969 
Q 1172 3969 956 3594 
Q 838 3388 822 3006 
L 266 3006 
Q 266 3506 466 3856 
Q 809 4481 1675 4481 
Q 2359 4481 2734 4176 
Q 3109 3872 3109 3294 
Q 3109 2881 2888 2625 
Q 2750 2466 2531 2375 
Q 2884 2278 3082 2001 
Q 3281 1725 3281 1325 
Q 3281 684 2859 281 
Q 2438 -122 1663 -122 
z
" transform="scale(0.015625)"/>
       </defs>
       <use xlink:href="#Helvetica-2d"/>
       <use xlink:href="#Helvetica-33" transform="translate(33.300781 0)"/>
       <use xlink:href="#Helvetica-30" transform="translate(88.916016 0)"/>
      </g>
     </g>
    </g>
    <g id="ytick_3">
     <g id="line2d_14">
      <path d="M 57.6 232.766046 
L 414.72 232.766046 
" clip-path="url(#p280d6fdd93)" style="fill: none; stroke: #b0b0b0; stroke-width: 0.25; stroke-linecap: square"/>
     </g>
     <g id="line2d_15">
      <g>
       <use xlink:href="#m285228ee32" x="57.6" y="232.766046" style="stroke: #000000; stroke-width: 0.8"/>
      </g>
     </g>
     <g id="text_13">
      <!-- -20 -->
      <g transform="translate(44.03875 235.635421) scale(0.08 -0.08)">
       <use xlink:href="#Helvetica-2d"/>
       <use xlink:href="#Helvetica-32" transform="translate(33.300781 0)"/>
       <use xlink:href="#Helvetica-30" transform="translate(88.916016 0)"/>
      </g>
     </g>
    </g>
    <g id="ytick_4">
     <g id="line2d_16">
      <path d="M 57.6 208.082943 
L 414.72 208.082943 
" clip-path="url(#p280d6fdd93)" style="fill: none; stroke: #b0b0b0; stroke-width: 0.25; stroke-linecap: square"/>
     </g>
     <g id="line2d_17">
      <g>
       <use xlink:href="#m285228ee32" x="57.6" y="208.082943" style="stroke: #000000; stroke-width: 0.8"/>
      </g>
     </g>
     <g id="text_14">
      <!-- -10 -->
      <g transform="translate(44.03875 210.952318) scale(0.08 -0.08)">
       <use xlink:href="#Helvetica-2d"/>
       <use xlink:href="#Helvetica-31" transform="translate(33.300781 0)"/>
       <use xlink:href="#Helvetica-30" transform="translate(88.916016 0)"/>
      </g>
     </g>
    </g>
    <g id="ytick_5">
     <g id="line2d_18">
      <path d="M 57.6 183.39984 
L 414.72 183.39984 
" clip-path="url(#p280d6fdd93)" style="fill: none; stroke: #b0b0b0; stroke-width: 0.25; stroke-linecap: square"/>
     </g>
     <g id="line2d_19">
      <g>
       <use xlink:href="#m285228ee32" x="57.6" y="183.39984" style="stroke: #000000; stroke-width: 0.8"/>
      </g>
     </g>
     <g id="text_15">
      <!-- -5 -->
      <g transform="translate(48.4875 186.269215) scale(0.08 -0.08)">
       <defs>
        <path id="Helvetica-35" d="M 791 1141 
Q 847 659 1238 475 
Q 1438 381 1700 381 
Q 2200 381 2440 700 
Q 2681 1019 2681 1406 
Q 2681 1875 2395 2131 
Q 2109 2388 1709 2388 
Q 1419 2388 1211 2275 
Q 1003 2163 856 1963 
L 369 1991 
L 709 4400 
L 3034 4400 
L 3034 3856 
L 1131 3856 
L 941 2613 
Q 1097 2731 1238 2791 
Q 1488 2894 1816 2894 
Q 2431 2894 2859 2497 
Q 3288 2100 3288 1491 
Q 3288 856 2895 371 
Q 2503 -113 1644 -113 
Q 1097 -113 676 195 
Q 256 503 206 1141 
L 791 1141 
z
" transform="scale(0.015625)"/>
       </defs>
       <use xlink:href="#Helvetica-2d"/>
       <use xlink:href="#Helvetica-35" transform="translate(33.300781 0)"/>
      </g>
     </g>
    </g>
    <g id="ytick_6">
     <g id="line2d_20">
      <path d="M 57.6 158.716738 
L 414.72 158.716738 
" clip-path="url(#p280d6fdd93)" style="fill: none; stroke: #b0b0b0; stroke-width: 0.25; stroke-linecap: square"/>
     </g>
     <g id="line2d_21">
      <g>
       <use xlink:href="#m285228ee32" x="57.6" y="158.716738" style="stroke: #000000; stroke-width: 0.8"/>
      </g>
     </g>
     <g id="text_16">
      <!-- 5 -->
      <g transform="translate(51.15125 161.586113) scale(0.08 -0.08)">
       <use xlink:href="#Helvetica-35"/>
      </g>
     </g>
    </g>
    <g id="ytick_7">
     <g id="line2d_22">
      <path d="M 57.6 134.033635 
L 414.72 134.033635 
" clip-path="url(#p280d6fdd93)" style="fill: none; stroke: #b0b0b0; stroke-width: 0.25; stroke-linecap: square"/>
     </g>
     <g id="line2d_23">
      <g>
       <use xlink:href="#m285228ee32" x="57.6" y="134.033635" style="stroke: #000000; stroke-width: 0.8"/>
      </g>
     </g>
     <g id="text_17">
      <!-- 10 -->
      <g transform="translate(46.7025 136.90301) scale(0.08 -0.08)">
       <use xlink:href="#Helvetica-31"/>
       <use xlink:href="#Helvetica-30" transform="translate(55.615234 0)"/>
      </g>
     </g>
    </g>
    <g id="ytick_8">
     <g id="line2d_24">
      <path d="M 57.6 109.350532 
L 414.72 109.350532 
" clip-path="url(#p280d6fdd93)" style="fill: none; stroke: #b0b0b0; stroke-width: 0.25; stroke-linecap: square"/>
     </g>
     <g id="line2d_25">
      <g>
       <use xlink:href="#m285228ee32" x="57.6" y="109.350532" style="stroke: #000000; stroke-width: 0.8"/>
      </g>
     </g>
     <g id="text_18">
      <!-- 20 -->
      <g transform="translate(46.7025 112.219907) scale(0.08 -0.08)">
       <use xlink:href="#Helvetica-32"/>
       <use xlink:href="#Helvetica-30" transform="translate(55.615234 0)"/>
      </g>
     </g>
    </g>
    <g id="ytick_9">
     <g id="line2d_26">
      <path d="M 57.6 84.66743 
L 414.72 84.66743 
" clip-path="url(#p280d6fdd93)" style="fill: none; stroke: #b0b0b0; stroke-width: 0.25; stroke-linecap: square"/>
     </g>
     <g id="line2d_27">
      <g>
       <use xlink:href="#m285228ee32" x="57.6" y="84.66743" style="stroke: #000000; stroke-width: 0.8"/>
      </g>
     </g>
     <g id="text_19">
      <!-- 30 -->
      <g transform="translate(46.7025 87.536805) scale(0.08 -0.08)">
       <use xlink:href="#Helvetica-33"/>
       <use xlink:href="#Helvetica-30" transform="translate(55.615234 0)"/>
      </g>
     </g>
    </g>
    <g id="ytick_10">
     <g id="line2d_28">
      <path d="M 57.6 59.984327 
L 414.72 59.984327 
" clip-path="url(#p280d6fdd93)" style="fill: none; stroke: #b0b0b0; stroke-width: 0.25; stroke-linecap: square"/>
     </g>
     <g id="line2d_29">
      <g>
       <use xlink:href="#m285228ee32" x="57.6" y="59.984327" style="stroke: #000000; stroke-width: 0.8"/>
      </g>
     </g>
     <g id="text_20">
      <!-- 40 -->
      <g transform="translate(46.7025 62.853702) scale(0.08 -0.08)">
       <use xlink:href="#Helvetica-34"/>
       <use xlink:href="#Helvetica-30" transform="translate(55.615234 0)"/>
      </g>
     </g>
    </g>
    <g id="text_21">
     <!-- Elevation [˚] -->
     <g transform="translate(38.37125 195.648) rotate(-90) scale(0.08 -0.08)">
      <defs>
       <path id="Helvetica-45" d="M 547 4591 
L 3894 4591 
L 3894 4028 
L 1153 4028 
L 1153 2634 
L 3688 2634 
L 3688 2103 
L 1153 2103 
L 1153 547 
L 3941 547 
L 3941 0 
L 547 0 
L 547 4591 
z
M 2244 4591 
L 2244 4591 
z
" transform="scale(0.015625)"/>
       <path id="Helvetica-6c" d="M 428 4591 
L 991 4591 
L 991 0 
L 428 0 
L 428 4591 
z
" transform="scale(0.015625)"/>
       <path id="Helvetica-76" d="M 688 3347 
L 1581 622 
L 2516 3347 
L 3131 3347 
L 1869 0 
L 1269 0 
L 34 3347 
L 688 3347 
z
" transform="scale(0.015625)"/>
       <path id="Helvetica-61" d="M 844 891 
Q 844 647 1022 506 
Q 1200 366 1444 366 
Q 1741 366 2019 503 
Q 2488 731 2488 1250 
L 2488 1703 
Q 2384 1638 2221 1594 
Q 2059 1550 1903 1531 
L 1563 1488 
Q 1256 1447 1103 1359 
Q 844 1213 844 891 
z
M 2206 2028 
Q 2400 2053 2466 2191 
Q 2503 2266 2503 2406 
Q 2503 2694 2298 2823 
Q 2094 2953 1713 2953 
Q 1272 2953 1088 2716 
Q 984 2584 953 2325 
L 428 2325 
Q 444 2944 830 3186 
Q 1216 3428 1725 3428 
Q 2316 3428 2684 3203 
Q 3050 2978 3050 2503 
L 3050 575 
Q 3050 488 3086 434 
Q 3122 381 3238 381 
Q 3275 381 3322 386 
Q 3369 391 3422 400 
L 3422 -16 
Q 3291 -53 3222 -62 
Q 3153 -72 3034 -72 
Q 2744 -72 2613 134 
Q 2544 244 2516 444 
Q 2344 219 2022 53 
Q 1700 -113 1313 -113 
Q 847 -113 551 170 
Q 256 453 256 878 
Q 256 1344 547 1600 
Q 838 1856 1309 1916 
L 2206 2028 
z
M 1741 3428 
L 1741 3428 
z
" transform="scale(0.015625)"/>
       <path id="Helvetica-74" d="M 525 4281 
L 1094 4281 
L 1094 3347 
L 1628 3347 
L 1628 2888 
L 1094 2888 
L 1094 703 
Q 1094 528 1213 469 
Q 1278 434 1431 434 
Q 1472 434 1519 436 
Q 1566 438 1628 444 
L 1628 0 
Q 1531 -28 1426 -40 
Q 1322 -53 1200 -53 
Q 806 -53 665 148 
Q 525 350 525 672 
L 525 2888 
L 72 2888 
L 72 3347 
L 525 3347 
L 525 4281 
z
" transform="scale(0.015625)"/>
       <path id="Helvetica-69" d="M 413 3331 
L 984 3331 
L 984 0 
L 413 0 
L 413 3331 
z
M 413 4591 
L 984 4591 
L 984 3953 
L 413 3953 
L 413 4591 
z
" transform="scale(0.015625)"/>
       <path id="Helvetica-6f" d="M 1741 363 
Q 2300 363 2508 786 
Q 2716 1209 2716 1728 
Q 2716 2197 2566 2491 
Q 2328 2953 1747 2953 
Q 1231 2953 997 2559 
Q 763 2166 763 1609 
Q 763 1075 997 719 
Q 1231 363 1741 363 
z
M 1763 3444 
Q 2409 3444 2856 3012 
Q 3303 2581 3303 1744 
Q 3303 934 2909 406 
Q 2516 -122 1688 -122 
Q 997 -122 590 345 
Q 184 813 184 1600 
Q 184 2444 612 2944 
Q 1041 3444 1763 3444 
z
M 1744 3428 
L 1744 3428 
z
" transform="scale(0.015625)"/>
       <path id="Helvetica-2da" d="M 1063 4034 
Q 1225 4034 1340 4150 
Q 1456 4266 1456 4428 
Q 1456 4591 1340 4706 
Q 1225 4822 1063 4822 
Q 903 4822 787 4706 
Q 672 4591 672 4428 
Q 672 4266 787 4150 
Q 903 4034 1063 4034 
z
M 1063 5081 
Q 1331 5081 1523 4889 
Q 1716 4697 1716 4428 
Q 1716 4159 1523 3967 
Q 1331 3775 1063 3775 
Q 794 3775 603 3967 
Q 413 4159 413 4428 
Q 413 4697 603 4889 
Q 794 5081 1063 5081 
z
" transform="scale(0.015625)"/>
      </defs>
      <use xlink:href="#Helvetica-45"/>
      <use xlink:href="#Helvetica-6c" transform="translate(66.699219 0)"/>
      <use xlink:href="#Helvetica-65" transform="translate(88.916016 0)"/>
      <use xlink:href="#Helvetica-76" transform="translate(144.53125 0)"/>
      <use xlink:href="#Helvetica-61" transform="translate(194.53125 0)"/>
      <use xlink:href="#Helvetica-74" transform="translate(250.146484 0)"/>
      <use xlink:href="#Helvetica-69" transform="translate(277.929688 0)"/>
      <use xlink:href="#Helvetica-6f" transform="translate(300.146484 0)"/>
      <use xlink:href="#Helvetica-6e" transform="translate(355.761719 0)"/>
      <use xlink:href="#Helvetica-20" transform="translate(411.376953 0)"/>
      <use xlink:href="#Helvetica-5b" transform="translate(439.160156 0)"/>
      <use xlink:href="#Helvetica-2da" transform="translate(466.943359 0)"/>
      <use xlink:href="#Helvetica-5d" transform="translate(500.244141 0)"/>
     </g>
    </g>
   </g>
   <g id="line2d_30">
    <path d="M 36.592941 281.798517 
L 44.606478 281.706007 
L 54.623398 281.336953 
L 64.640319 280.712871 
L 76.660624 279.707836 
L 102.704617 277.406078 
L 110.718154 276.950564 
L 118.73169 276.730964 
L 126.745226 276.786754 
L 134.758763 277.126725 
L 142.772299 277.724428 
L 152.78922 278.737913 
L 166.812909 280.38121 
L 170.819677 281.097959 
L 172.823061 281.682769 
L 174.826445 282.525913 
L 176.829829 283.678604 
L 182.839982 288.050665 
L 184.843366 288.978479 
L 186.84675 289.21038 
L 188.850134 288.700956 
L 190.853518 287.608882 
L 194.860286 284.850896 
L 196.863671 283.696297 
L 198.867055 282.842509 
L 200.870439 282.265889 
L 202.873823 281.889954 
L 206.880591 281.429298 
L 216.897512 280.391738 
L 226.914432 279.038059 
L 244.944889 276.455729 
L 252.958426 275.574039 
L 258.968578 275.127711 
L 264.978731 274.908441 
L 270.988883 274.940463 
L 276.999035 275.232131 
L 283.009188 275.774359 
L 289.01934 276.540215 
L 297.032876 277.831291 
L 321.073486 282.066558 
L 327.083638 282.830686 
L 333.093791 283.358001 
L 339.103943 283.617732 
L 345.114095 283.602242 
L 351.124248 283.328574 
L 357.1344 282.837723 
L 365.147936 281.954806 
L 379.171625 280.325283 
L 385.181778 279.817845 
L 391.19193 279.535083 
L 397.202082 279.531402 
L 403.212235 279.838654 
L 409.222387 280.464077 
L 415.232539 281.390851 
L 421.242692 282.581147 
L 427.252844 283.981275 
L 435.266381 286.065265 
L 459.30699 292.491056 
L 461.8 293.101406 
L 461.8 293.101406 
" clip-path="url(#p280d6fdd93)" style="fill: none; stroke: #000000; stroke-opacity: 0.7; stroke-width: 0.75; stroke-linecap: square"/>
   </g>
   <g id="line2d_31">
    <path d="M 36.592941 270.488078 
L 42.603094 270.374939 
L 48.613246 270.04567 
L 56.626782 269.323515 
L 66.643703 268.129295 
L 82.670776 266.19346 
L 90.684312 265.484084 
L 98.697849 265.053559 
L 106.711385 264.921045 
L 114.724922 265.059998 
L 124.741842 265.522469 
L 140.768915 266.580309 
L 158.799372 267.704389 
L 172.823061 268.456204 
L 174.826445 268.703518 
L 176.829829 269.116257 
L 178.833214 269.779082 
L 180.836598 270.753791 
L 182.839982 272.02767 
L 186.84675 274.818122 
L 188.850134 275.766641 
L 190.853518 276.060226 
L 192.856902 275.616866 
L 194.860286 274.561573 
L 198.867055 271.751594 
L 200.870439 270.536117 
L 202.873823 269.627688 
L 204.877207 269.017433 
L 206.880591 268.633916 
L 210.887359 268.224836 
L 224.911048 267.169413 
L 236.931353 265.943271 
L 254.96181 264.070648 
L 262.975346 263.494045 
L 268.985499 263.250561 
L 274.995651 263.200006 
L 281.005804 263.35558 
L 287.015956 263.715017 
L 293.026108 264.260351 
L 301.039645 265.218936 
L 315.063334 267.214474 
L 325.080254 268.564313 
L 333.093791 269.419268 
L 339.103943 269.870964 
L 345.114095 270.135294 
L 351.124248 270.204463 
L 357.1344 270.084247 
L 365.147936 269.663098 
L 373.161473 269.014114 
L 399.205466 266.679139 
L 405.215619 266.408491 
L 411.225771 266.346849 
L 417.235924 266.535369 
L 423.246076 267.005317 
L 429.256228 267.775687 
L 435.266381 268.85126 
L 441.276533 270.221326 
L 447.286685 271.859341 
L 453.296838 273.723697 
L 461.8 276.640367 
L 461.8 276.640367 
" clip-path="url(#p280d6fdd93)" style="fill: none; stroke: #000000; stroke-opacity: 0.7; stroke-width: 0.75; stroke-linecap: square"/>
   </g>
   <g id="line2d_32">
    <path d="M 36.592941 257.693809 
L 44.606478 257.554938 
L 52.620014 257.151857 
L 60.633551 256.524381 
L 72.653855 255.307095 
L 90.684312 253.45248 
L 98.697849 252.857735 
L 106.711385 252.511507 
L 114.724922 252.452706 
L 122.738458 252.682257 
L 130.751995 253.161816 
L 140.768915 254.000616 
L 160.802756 255.760966 
L 168.816293 256.25273 
L 176.829829 256.653329 
L 178.833214 256.850109 
L 180.836598 257.18989 
L 182.839982 257.757461 
L 184.843366 258.623157 
L 186.84675 259.792981 
L 190.853518 262.487245 
L 192.856902 263.468202 
L 194.860286 263.82938 
L 196.863671 263.452124 
L 198.867055 262.425319 
L 204.877207 258.179734 
L 206.880591 257.154481 
L 208.883975 256.440546 
L 210.887359 255.974822 
L 214.894128 255.462542 
L 266.982115 251.203702 
L 274.995651 250.780768 
L 281.005804 250.638173 
L 287.015956 250.684341 
L 293.026108 250.943144 
L 299.036261 251.422461 
L 305.046413 252.110382 
L 313.059949 253.291425 
L 337.100559 257.147396 
L 343.110711 257.769517 
L 349.120864 258.124206 
L 355.131016 258.1826 
L 361.141168 257.945406 
L 367.151321 257.443852 
L 375.164857 256.469566 
L 393.195314 254.028471 
L 399.205466 253.476192 
L 405.215619 253.186094 
L 411.225771 253.204936 
L 417.235924 253.552637 
L 423.246076 254.222871 
L 429.256228 255.186863 
L 435.266381 256.399716 
L 443.279917 258.311817 
L 453.296838 261.00527 
L 461.8 263.434081 
L 461.8 263.434081 
" clip-path="url(#p280d6fdd93)" style="fill: none; stroke: #000000; stroke-opacity: 0.7; stroke-width: 0.75; stroke-linecap: square"/>
   </g>
   <g id="line2d_33">
    <path d="M 36.592941 245.407524 
L 42.603094 245.321387 
L 50.61663 244.949636 
L 58.630166 244.324821 
L 68.647087 243.298402 
L 88.680928 241.144717 
L 96.694465 240.518821 
L 104.708001 240.143392 
L 112.721538 240.056444 
L 120.735074 240.260149 
L 128.748611 240.721278 
L 138.765531 241.56164 
L 164.809525 243.971123 
L 174.826445 244.574004 
L 180.836598 244.877435 
L 182.839982 245.059139 
L 184.843366 245.369398 
L 186.84675 245.891444 
L 188.850134 246.701509 
L 190.853518 247.821582 
L 194.860286 250.526711 
L 196.863671 251.596339 
L 198.867055 252.087103 
L 200.870439 251.844343 
L 202.873823 250.917969 
L 204.877207 249.540386 
L 208.883975 246.636459 
L 210.887359 245.534152 
L 212.890744 244.745195 
L 214.894128 244.215829 
L 218.900896 243.608468 
L 252.958426 239.989384 
L 264.978731 238.765812 
L 272.992267 238.169644 
L 279.002419 237.900981 
L 285.012572 237.820857 
L 291.022724 237.951068 
L 297.032876 238.299849 
L 303.043029 238.858985 
L 311.056565 239.884108 
L 321.073486 241.453288 
L 333.093791 243.35393 
L 341.107327 244.366664 
L 347.117479 244.889005 
L 353.127632 245.163358 
L 359.137784 245.173729 
L 365.147936 244.929149 
L 371.158089 244.463528 
L 379.171625 243.598433 
L 395.198698 241.730252 
L 401.208851 241.240633 
L 407.219003 240.98225 
L 413.229155 241.007892 
L 419.239308 241.349514 
L 425.24946 242.017071 
L 431.259612 242.999603 
L 437.269765 244.268287 
L 443.279917 245.780915 
L 451.293454 248.089657 
L 461.8 251.429432 
L 461.8 251.429432 
" clip-path="url(#p280d6fdd93)" style="fill: none; stroke: #000000; stroke-opacity: 0.7; stroke-width: 0.75; stroke-linecap: square"/>
   </g>
   <g id="line2d_34">
    <path d="M 36.592941 233.366455 
L 42.603094 233.278368 
L 50.61663 232.896969 
L 58.630166 232.251333 
L 68.647087 231.177244 
L 90.684312 228.657469 
L 98.697849 228.01 
L 106.711385 227.635725 
L 112.721538 227.557809 
L 118.73169 227.654848 
L 126.745226 228.030844 
L 136.762147 228.799469 
L 164.809525 231.203768 
L 172.823061 231.618966 
L 186.84675 232.125581 
L 188.850134 232.378037 
L 190.853518 232.831226 
L 192.856902 233.566206 
L 194.860286 234.619638 
L 200.870439 238.466105 
L 202.873823 239.096923 
L 204.877207 239.014849 
L 206.880591 238.230124 
L 208.883975 236.946623 
L 212.890744 234.086563 
L 214.894128 232.972781 
L 216.897512 232.178441 
L 218.900896 231.660435 
L 220.90428 231.336152 
L 224.911048 230.97043 
L 238.934737 229.920421 
L 248.951658 228.865866 
L 260.971962 227.321499 
L 272.992267 225.778041 
L 281.005804 224.990675 
L 287.015956 224.636524 
L 293.026108 224.543238 
L 299.036261 224.741751 
L 305.046413 225.236342 
L 311.056565 226.001255 
L 317.066718 226.980968 
L 341.107327 231.22031 
L 347.117479 231.863505 
L 353.127632 232.190057 
L 357.1344 232.219049 
L 363.144552 231.986483 
L 369.154705 231.462377 
L 377.168241 230.445498 
L 391.19193 228.518261 
L 397.202082 227.938325 
L 403.212235 227.651722 
L 407.219003 227.657879 
L 411.225771 227.836184 
L 415.232539 228.191062 
L 419.239308 228.720006 
L 423.246076 229.41413 
L 429.256228 230.732214 
L 435.266381 232.322567 
L 443.279917 234.731788 
L 461.8 240.685038 
L 461.8 240.685038 
" clip-path="url(#p280d6fdd93)" style="fill: none; stroke: #000000; stroke-opacity: 0.7; stroke-width: 0.75; stroke-linecap: square"/>
   </g>
   <g id="line2d_35">
    <path d="M 36.592941 221.021812 
L 42.603094 220.933052 
L 50.61663 220.548731 
L 58.630166 219.898029 
L 68.647087 218.814446 
L 90.684312 216.251798 
L 98.697849 215.576753 
L 106.711385 215.168666 
L 112.721538 215.063512 
L 118.73169 215.134849 
L 126.745226 215.485824 
L 134.758763 216.077076 
L 146.779068 217.231113 
L 162.806141 218.776063 
L 172.823061 219.499672 
L 180.836598 219.880385 
L 190.853518 220.270706 
L 192.856902 220.501261 
L 194.860286 220.915252 
L 196.863671 221.596251 
L 198.867055 222.592594 
L 204.877207 226.455165 
L 206.880591 227.186849 
L 208.883975 227.223039 
L 210.887359 226.536077 
L 212.890744 225.299654 
L 216.897512 222.36642 
L 218.900896 221.167116 
L 220.90428 220.283896 
L 222.907664 219.686552 
L 224.911048 219.296106 
L 228.917816 218.826692 
L 242.941505 217.474668 
L 252.958426 216.244783 
L 279.002419 212.852502 
L 285.012572 212.331924 
L 291.022724 212.023789 
L 297.032876 211.96739 
L 303.043029 212.183408 
L 309.053181 212.669348 
L 315.063334 213.397357 
L 323.07687 214.65073 
L 341.107327 217.709146 
L 347.117479 218.481269 
L 353.127632 219.00219 
L 359.137784 219.228325 
L 365.147936 219.147142 
L 371.158089 218.779617 
L 377.168241 218.179109 
L 387.185162 216.890175 
L 397.202082 215.666668 
L 403.212235 215.176046 
L 407.219003 215.010865 
L 411.225771 215.001977 
L 415.232539 215.16625 
L 419.239308 215.514507 
L 423.246076 216.051185 
L 427.252844 216.774373 
L 431.259612 217.676048 
L 435.266381 218.742654 
L 441.276533 220.610536 
L 447.286685 222.730084 
L 457.303606 226.57942 
L 461.8 228.342036 
L 461.8 228.342036 
" clip-path="url(#p280d6fdd93)" style="fill: none; stroke: #000000; stroke-opacity: 0.7; stroke-width: 0.75; stroke-linecap: square"/>
   </g>
   <g id="line2d_36">
    <path d="M 36.592941 208.591759 
L 44.606478 208.444345 
L 52.620014 208.014059 
L 60.633551 207.336571 
L 70.650471 206.232977 
L 94.691081 203.389983 
L 102.704617 202.723984 
L 108.714769 202.406779 
L 114.724922 202.271199 
L 120.735074 202.327689 
L 126.745226 202.573906 
L 134.758763 203.169171 
L 142.772299 204.005071 
L 156.795988 205.751562 
L 168.816293 207.165494 
L 176.829829 207.903232 
L 184.843366 208.410036 
L 196.863671 209.02968 
L 198.867055 209.391673 
L 200.870439 210.0012 
L 202.873823 210.917263 
L 204.877207 212.120449 
L 208.883975 214.701123 
L 210.887359 215.505267 
L 212.890744 215.638516 
L 214.894128 215.034444 
L 216.897512 213.832866 
L 220.90428 210.794149 
L 222.907664 209.487125 
L 224.911048 208.49135 
L 226.914432 207.792324 
L 228.917816 207.316756 
L 232.924585 206.718776 
L 252.958426 204.331496 
L 279.002419 200.992534 
L 287.015956 200.245365 
L 293.026108 199.875526 
L 299.036261 199.706833 
L 305.046413 199.761211 
L 311.056565 200.044919 
L 317.066718 200.545747 
L 325.080254 201.49388 
L 337.100559 203.247468 
L 347.117479 204.647283 
L 353.127632 205.308515 
L 359.137784 205.763415 
L 365.147936 205.975632 
L 371.158089 205.934462 
L 377.168241 205.657544 
L 385.181778 205.004542 
L 403.212235 203.303304 
L 409.222387 203.020208 
L 413.229155 202.994386 
L 417.235924 203.125909 
L 421.242692 203.43257 
L 425.24946 203.92653 
L 429.256228 204.613773 
L 433.262996 205.493833 
L 437.269765 206.559781 
L 441.276533 207.798482 
L 447.286685 209.937875 
L 453.296838 212.338918 
L 461.8 215.984126 
L 461.8 215.984126 
" clip-path="url(#p280d6fdd93)" style="fill: none; stroke: #000000; stroke-opacity: 0.7; stroke-width: 0.75; stroke-linecap: square"/>
   </g>
   <g id="line2d_37">
    <path d="M 36.592941 196.068231 
L 44.606478 195.956605 
L 52.620014 195.621791 
L 60.633551 195.067191 
L 68.647087 194.308037 
L 78.664008 193.131163 
L 100.701233 190.416802 
L 108.714769 189.751452 
L 114.724922 189.480234 
L 120.735074 189.441557 
L 126.745226 189.65057 
L 132.755379 190.102275 
L 138.765531 190.770871 
L 146.779068 191.9199 
L 170.819677 195.66049 
L 176.829829 196.324398 
L 182.839982 196.791014 
L 188.850134 197.047126 
L 200.870439 197.252587 
L 202.873823 197.501975 
L 204.877207 197.98291 
L 206.880591 198.763786 
L 208.883975 199.844466 
L 212.890744 202.312907 
L 214.894128 203.148818 
L 216.897512 203.351723 
L 218.900896 202.818594 
L 220.90428 201.654011 
L 226.914432 197.14782 
L 228.917816 196.065334 
L 230.921201 195.295195 
L 232.924585 194.770838 
L 236.931353 194.13477 
L 248.951658 192.868951 
L 264.978731 191.082471 
L 287.015956 188.55671 
L 295.029492 187.878481 
L 301.039645 187.555883 
L 307.049797 187.433687 
L 313.059949 187.533338 
L 319.070102 187.856689 
L 325.080254 188.383256 
L 333.093791 189.324775 
L 353.127632 191.853859 
L 359.137784 192.354643 
L 365.147936 192.635027 
L 371.158089 192.675039 
L 377.168241 192.485648 
L 385.181778 191.954046 
L 403.212235 190.56695 
L 409.222387 190.416924 
L 413.229155 190.49117 
L 417.235924 190.732291 
L 421.242692 191.157766 
L 425.24946 191.77876 
L 429.256228 192.5996 
L 433.262996 193.617556 
L 437.269765 194.822946 
L 441.276533 196.199532 
L 447.286685 198.535668 
L 455.300222 202.005054 
L 461.8 204.949782 
L 461.8 204.949782 
" clip-path="url(#p280d6fdd93)" style="fill: none; stroke: #000000; stroke-opacity: 0.7; stroke-width: 0.75; stroke-linecap: square"/>
   </g>
   <g id="line2d_38">
    <path d="M 36.592941 183.789976 
L 44.606478 183.670527 
L 52.620014 183.31463 
L 60.633551 182.732003 
L 68.647087 181.945699 
L 78.664008 180.745157 
L 100.701233 178.006195 
L 108.714769 177.313802 
L 114.724922 177.004902 
L 120.735074 176.910453 
L 126.745226 177.045544 
L 132.755379 177.408282 
L 138.765531 177.979201 
L 146.779068 179.000606 
L 158.799372 180.838757 
L 170.819677 182.626503 
L 178.833214 183.585438 
L 184.843366 184.123661 
L 190.853518 184.488849 
L 198.867055 184.718837 
L 204.877207 184.930559 
L 206.880591 185.183947 
L 208.883975 185.654178 
L 210.887359 186.41587 
L 212.890744 187.485082 
L 216.897512 190.044327 
L 218.900896 191.007316 
L 220.90428 191.374704 
L 222.907664 191.006654 
L 224.911048 189.969616 
L 230.921201 185.503795 
L 232.924585 184.37021 
L 234.927969 183.550288 
L 236.931353 182.985921 
L 240.938121 182.295843 
L 274.995651 177.913917 
L 285.012572 176.657345 
L 293.026108 175.860541 
L 299.036261 175.449559 
L 305.046413 175.235336 
L 311.056565 175.236584 
L 317.066718 175.454374 
L 323.07687 175.87002 
L 331.090406 176.663428 
L 353.127632 179.113015 
L 359.137784 179.541251 
L 365.147936 179.776288 
L 371.158089 179.805674 
L 377.168241 179.644155 
L 385.181778 179.207495 
L 401.208851 178.241898 
L 407.219003 178.125241 
L 413.229155 178.278563 
L 417.235924 178.564653 
L 421.242692 179.01487 
L 425.24946 179.637731 
L 429.256228 180.435917 
L 433.262996 181.406164 
L 437.269765 182.539406 
L 443.279917 184.511915 
L 449.290069 186.749355 
L 457.303606 189.994793 
L 461.8 191.869783 
L 461.8 191.869783 
" clip-path="url(#p280d6fdd93)" style="fill: none; stroke: #000000; stroke-opacity: 0.7; stroke-width: 0.75; stroke-linecap: square"/>
   </g>
   <g id="line2d_39">
    <path d="M 36.592941 171.510151 
L 44.606478 171.36744 
L 52.620014 170.950817 
L 60.633551 170.293815 
L 70.650471 169.216244 
L 102.704617 165.466051 
L 110.718154 164.860684 
L 118.73169 164.519838 
L 124.741842 164.463046 
L 130.751995 164.587949 
L 136.762147 164.89662 
L 142.772299 165.382986 
L 150.785836 166.281523 
L 158.799372 167.411522 
L 172.823061 169.689952 
L 184.843366 171.585465 
L 192.856902 172.626569 
L 198.867055 173.223005 
L 210.887359 174.288251 
L 212.890744 174.778189 
L 214.894128 175.537792 
L 216.897512 176.59737 
L 220.90428 179.204854 
L 222.907664 180.256458 
L 224.911048 180.744586 
L 226.914432 180.495675 
L 228.917816 179.5377 
L 230.921201 178.087973 
L 234.927969 174.923254 
L 236.931353 173.657286 
L 238.934737 172.700394 
L 240.938121 172.006137 
L 244.944889 171.08363 
L 256.965194 169.03114 
L 272.992267 166.406306 
L 281.005804 165.296932 
L 289.01934 164.41046 
L 297.032876 163.789089 
L 305.046413 163.454547 
L 313.059949 163.407094 
L 321.073486 163.624579 
L 329.087022 164.062091 
L 341.107327 164.980825 
L 357.1344 166.236159 
L 365.147936 166.680166 
L 373.161473 166.920613 
L 381.175009 166.946346 
L 391.19193 166.74686 
L 405.215619 166.435687 
L 411.225771 166.482766 
L 417.235924 166.74917 
L 423.246076 167.305234 
L 427.252844 167.865103 
L 431.259612 168.590108 
L 435.266381 169.486428 
L 439.273149 170.554551 
L 443.279917 171.788977 
L 449.290069 173.9255 
L 455.300222 176.34555 
L 461.8 179.180011 
L 461.8 179.180011 
" clip-path="url(#p280d6fdd93)" style="fill: none; stroke: #000000; stroke-opacity: 0.7; stroke-width: 0.75; stroke-linecap: square"/>
   </g>
   <g id="line2d_40">
    <path d="M 36.592941 158.311474 
L 46.609862 158.19525 
L 56.626782 157.830846 
L 64.640319 157.337937 
L 72.653855 156.653481 
L 82.670776 155.546656 
L 98.697849 153.451915 
L 108.714769 152.252021 
L 114.724922 151.702426 
L 120.735074 151.346867 
L 126.745226 151.230042 
L 132.755379 151.382857 
L 138.765531 151.818644 
L 144.775684 152.530989 
L 150.785836 153.493429 
L 156.795988 154.661021 
L 166.812909 156.894676 
L 180.836598 160.056221 
L 186.84675 161.221236 
L 192.856902 162.183623 
L 198.867055 162.899707 
L 204.877207 163.344332 
L 214.894128 163.860314 
L 216.897512 164.219022 
L 218.900896 164.830658 
L 220.90428 165.73951 
L 226.914432 169.154662 
L 228.917816 169.664452 
L 230.921201 169.45626 
L 232.924585 168.519678 
L 234.927969 167.042711 
L 238.934737 163.670871 
L 240.938121 162.263368 
L 242.941505 161.169812 
L 244.944889 160.356427 
L 246.948274 159.744629 
L 250.955042 158.829109 
L 262.975346 156.546222 
L 272.992267 154.817202 
L 281.005804 153.639805 
L 289.01934 152.705121 
L 297.032876 152.045357 
L 305.046413 151.668974 
L 313.059949 151.559927 
L 321.073486 151.67903 
L 331.090406 152.05916 
L 367.151321 153.678469 
L 399.205466 154.613919 
L 407.219003 155.178445 
L 413.229155 155.787117 
L 419.239308 156.580474 
L 425.24946 157.572358 
L 431.259612 158.767002 
L 437.269765 160.159133 
L 443.279917 161.734835 
L 451.293454 164.084007 
L 459.30699 166.657119 
L 461.8 167.492527 
L 461.8 167.492527 
" clip-path="url(#p280d6fdd93)" style="fill: none; stroke: #000000; stroke-opacity: 0.7; stroke-width: 0.75; stroke-linecap: square"/>
   </g>
   <g id="line2d_41">
    <path d="M 36.592941 146.015111 
L 46.609862 145.897196 
L 56.626782 145.529927 
L 64.640319 145.036823 
L 72.653855 144.355151 
L 82.670776 143.25239 
L 96.694465 141.405325 
L 108.714769 139.880516 
L 116.728306 139.118467 
L 122.738458 138.775538 
L 128.748611 138.682602 
L 134.758763 138.875003 
L 140.768915 139.371193 
L 146.779068 140.169706 
L 152.78922 141.247757 
L 158.799372 142.56169 
L 166.812909 144.570912 
L 184.843366 149.224715 
L 190.853518 150.51248 
L 196.863671 151.543662 
L 202.873823 152.266004 
L 206.880591 152.559892 
L 212.890744 152.729035 
L 218.900896 152.869124 
L 220.90428 153.117547 
L 222.907664 153.600123 
L 224.911048 154.373008 
L 230.921201 157.558621 
L 232.924585 158.093831 
L 234.927969 157.935835 
L 236.931353 157.036038 
L 238.934737 155.550463 
L 242.941505 152.00272 
L 244.944889 150.46274 
L 246.948274 149.238575 
L 248.951658 148.311393 
L 250.955042 147.607681 
L 254.96181 146.565131 
L 262.975346 144.910288 
L 270.988883 143.467564 
L 279.002419 142.270842 
L 287.015956 141.348984 
L 295.029492 140.696061 
L 303.043029 140.280419 
L 313.059949 140.023212 
L 325.080254 139.969765 
L 345.114095 140.149185 
L 377.168241 140.634849 
L 389.188546 141.029402 
L 399.205466 141.60655 
L 407.219003 142.315013 
L 413.229155 143.030649 
L 419.239308 143.929681 
L 425.24946 145.029187 
L 431.259612 146.338291 
L 437.269765 147.856124 
L 443.279917 149.570421 
L 451.293454 152.118379 
L 461.8 155.77089 
L 461.8 155.77089 
" clip-path="url(#p280d6fdd93)" style="fill: none; stroke: #000000; stroke-opacity: 0.7; stroke-width: 0.75; stroke-linecap: square"/>
   </g>
   <g id="line2d_42">
    <path d="M 36.592941 134.064874 
L 44.606478 133.940714 
L 52.620014 133.57649 
L 60.633551 132.996245 
L 70.650471 132.025871 
L 84.67416 130.390478 
L 102.704617 128.306275 
L 110.718154 127.575624 
L 118.73169 127.068369 
L 124.741842 126.876309 
L 130.751995 126.874387 
L 136.762147 127.082703 
L 142.772299 127.513679 
L 148.782452 128.169795 
L 154.792604 129.041639 
L 160.802756 130.106636 
L 168.816293 131.762914 
L 194.860286 137.447262 
L 200.870439 138.434331 
L 206.880591 139.1753 
L 212.890744 139.634489 
L 222.907664 140.03148 
L 224.911048 140.295438 
L 226.914432 140.781245 
L 228.917816 141.553771 
L 230.921201 142.605398 
L 234.927969 144.916418 
L 236.931353 145.615762 
L 238.934737 145.652803 
L 240.938121 144.940702 
L 242.941505 143.600246 
L 248.951658 138.633011 
L 250.955042 137.401745 
L 252.958426 136.47474 
L 254.96181 135.784348 
L 258.968578 134.799208 
L 266.982115 133.280161 
L 276.999035 131.627015 
L 285.012572 130.536721 
L 293.026108 129.677996 
L 301.039645 129.039733 
L 311.056565 128.501106 
L 323.07687 128.124999 
L 339.103943 127.873111 
L 371.158089 127.645804 
L 387.185162 127.703833 
L 397.202082 127.963401 
L 405.215619 128.412846 
L 411.225771 128.952478 
L 417.235924 129.710661 
L 423.246076 130.72308 
L 429.256228 132.015809 
L 435.266381 133.600546 
L 441.276533 135.470682 
L 447.286685 137.598865 
L 455.300222 140.751134 
L 461.8 143.467022 
L 461.8 143.467022 
" clip-path="url(#p280d6fdd93)" style="fill: none; stroke: #000000; stroke-opacity: 0.7; stroke-width: 0.75; stroke-linecap: square"/>
   </g>
   <g id="line2d_43">
    <path d="M 36.592941 121.543418 
L 42.603094 121.454494 
L 50.61663 121.07036 
L 58.630166 120.422518 
L 68.647087 119.345868 
L 98.697849 115.871894 
L 106.711385 115.213957 
L 114.724922 114.757501 
L 122.738458 114.530252 
L 130.751995 114.554926 
L 138.765531 114.850764 
L 146.779068 115.431386 
L 154.792604 116.29912 
L 162.806141 117.437367 
L 170.819677 118.80352 
L 182.839982 121.114107 
L 196.863671 123.768525 
L 204.877207 125.024963 
L 210.887359 125.755901 
L 216.897512 126.266944 
L 226.914432 126.836847 
L 228.917816 127.122851 
L 230.921201 127.619733 
L 232.924585 128.399436 
L 234.927969 129.471564 
L 238.934737 131.955197 
L 240.938121 132.829463 
L 242.941505 133.080865 
L 244.944889 132.584714 
L 246.948274 131.423582 
L 252.958426 126.671324 
L 254.96181 125.456087 
L 256.965194 124.550135 
L 258.968578 123.893299 
L 262.975346 123.006104 
L 270.988883 121.692975 
L 283.009188 119.918595 
L 293.026108 118.681579 
L 301.039645 117.896552 
L 309.053181 117.302346 
L 319.070102 116.814598 
L 329.087022 116.572851 
L 341.107327 116.52462 
L 397.202082 116.862496 
L 405.215619 117.18133 
L 411.225771 117.650273 
L 417.235924 118.38722 
L 421.242692 119.056199 
L 425.24946 119.883801 
L 429.256228 120.879974 
L 433.262996 122.049975 
L 437.269765 123.393641 
L 441.276533 124.904881 
L 447.286685 127.457394 
L 453.296838 130.290826 
L 461.8 134.590857 
L 461.8 134.590857 
" clip-path="url(#p280d6fdd93)" style="fill: none; stroke: #000000; stroke-opacity: 0.7; stroke-width: 0.75; stroke-linecap: square"/>
   </g>
   <g id="line2d_44">
    <path d="M 36.592941 108.919035 
L 44.606478 108.803928 
L 52.620014 108.462344 
L 60.633551 107.906813 
L 70.650471 106.950606 
L 82.670776 105.536027 
L 100.701233 103.372571 
L 108.714769 102.624599 
L 116.728306 102.131481 
L 122.738458 101.968546 
L 128.748611 102.00178 
L 134.758763 102.236058 
L 140.768915 102.66461 
L 148.782452 103.506181 
L 156.795988 104.593956 
L 168.816293 106.499701 
L 186.84675 109.395865 
L 196.863671 110.774229 
L 204.877207 111.685233 
L 212.890744 112.399445 
L 220.90428 112.900788 
L 230.921201 113.431516 
L 232.924585 113.721512 
L 234.927969 114.218588 
L 236.931353 114.999451 
L 238.934737 116.087984 
L 242.941505 118.735359 
L 244.944889 119.782785 
L 246.948274 120.253892 
L 248.951658 119.988797 
L 250.955042 119.03161 
L 252.958426 117.610754 
L 256.965194 114.584092 
L 258.968578 113.40857 
L 260.971962 112.543001 
L 262.975346 111.935525 
L 266.982115 111.169542 
L 289.01934 108.11337 
L 299.036261 106.825163 
L 307.049797 105.982245 
L 315.063334 105.360312 
L 323.07687 104.970124 
L 333.093791 104.761727 
L 347.117479 104.758083 
L 363.144552 104.697644 
L 377.168241 104.384538 
L 391.19193 104.069719 
L 399.205466 104.110726 
L 405.215619 104.347197 
L 411.225771 104.817161 
L 417.235924 105.561577 
L 423.246076 106.60722 
L 429.256228 107.963894 
L 435.266381 109.623275 
L 441.276533 111.55943 
L 447.286685 113.730896 
L 455.300222 116.898176 
L 461.8 119.602694 
L 461.8 119.602694 
" clip-path="url(#p280d6fdd93)" style="fill: none; stroke: #000000; stroke-opacity: 0.7; stroke-width: 0.75; stroke-linecap: square"/>
   </g>
   <g id="line2d_45">
    <path d="M 36.592941 96.841324 
L 44.606478 96.710562 
L 52.620014 96.326752 
L 60.633551 95.7155 
L 70.650471 94.69854 
L 104.708001 90.91361 
L 112.721538 90.397114 
L 120.735074 90.149578 
L 128.748611 90.189367 
L 136.762147 90.505554 
L 144.775684 91.061684 
L 154.792604 92.01177 
L 168.816293 93.613528 
L 222.907664 100.014072 
L 234.927969 101.276768 
L 236.931353 101.65525 
L 238.934737 102.224996 
L 240.938121 103.065859 
L 242.941505 104.214801 
L 248.951658 108.30243 
L 250.955042 108.998944 
L 252.958426 108.968677 
L 254.96181 108.215511 
L 256.965194 106.938578 
L 260.971962 104.015114 
L 262.975346 102.837446 
L 264.978731 101.962993 
L 266.982115 101.3514 
L 270.988883 100.594892 
L 287.015956 98.250164 
L 305.046413 95.373756 
L 313.059949 94.336182 
L 321.073486 93.563454 
L 329.087022 93.073087 
L 337.100559 92.829646 
L 349.120864 92.75156 
L 367.151321 92.645457 
L 379.171625 92.305522 
L 397.202082 91.705724 
L 405.215619 91.70917 
L 411.225771 91.946883 
L 417.235924 92.445956 
L 423.246076 93.245988 
L 429.256228 94.368742 
L 435.266381 95.815593 
L 441.276533 97.566975 
L 447.286685 99.583796 
L 455.300222 102.588186 
L 461.8 105.188024 
L 461.8 105.188024 
" clip-path="url(#p280d6fdd93)" style="fill: none; stroke: #000000; stroke-opacity: 0.7; stroke-width: 0.75; stroke-linecap: square"/>
   </g>
   <g id="line2d_46">
    <path d="M 36.592941 84.97847 
L 42.603094 84.891448 
L 50.61663 84.514103 
L 58.630166 83.87248 
L 68.647087 82.791937 
L 98.697849 79.230736 
L 106.711385 78.578465 
L 114.724922 78.162786 
L 122.738458 78.010111 
L 130.751995 78.126695 
L 138.765531 78.500315 
L 146.779068 79.103135 
L 156.795988 80.117518 
L 168.816293 81.591774 
L 200.870439 85.68801 
L 212.890744 86.928311 
L 222.907664 87.756204 
L 234.927969 88.495671 
L 238.934737 88.804668 
L 240.938121 89.086903 
L 242.941505 89.549745 
L 244.944889 90.276637 
L 246.948274 91.317538 
L 252.958426 95.341907 
L 254.96181 96.143181 
L 256.965194 96.250974 
L 258.968578 95.629988 
L 260.971962 94.447464 
L 264.978731 91.580858 
L 266.982115 90.400784 
L 268.985499 89.533485 
L 270.988883 88.951765 
L 272.992267 88.577862 
L 276.999035 88.143953 
L 293.026108 86.747431 
L 327.083638 83.392424 
L 337.100559 82.781352 
L 347.117479 82.42325 
L 361.141168 82.208261 
L 379.171625 81.930383 
L 393.195314 81.441499 
L 409.222387 80.866129 
L 417.235924 80.846429 
L 423.246076 81.071034 
L 429.256228 81.566311 
L 435.266381 82.377774 
L 439.273149 83.108451 
L 443.279917 83.994174 
L 449.290069 85.606005 
L 455.300222 87.528545 
L 461.8 89.895341 
L 461.8 89.895341 
" clip-path="url(#p280d6fdd93)" style="fill: none; stroke: #000000; stroke-opacity: 0.7; stroke-width: 0.75; stroke-linecap: square"/>
   </g>
   <g id="line2d_47">
    <path d="M 36.592941 72.78042 
L 44.606478 72.63235 
L 52.620014 72.201935 
L 60.633551 71.528995 
L 70.650471 70.441813 
L 98.697849 67.211546 
L 106.711385 66.568893 
L 114.724922 66.15502 
L 122.738458 65.997207 
L 130.751995 66.102326 
L 138.765531 66.457845 
L 146.779068 67.034362 
L 156.795988 68.000411 
L 170.819677 69.632403 
L 198.867055 72.973984 
L 214.894128 74.619107 
L 230.921201 76.045895 
L 242.941505 77.078542 
L 244.944889 77.39224 
L 246.948274 77.872566 
L 248.951658 78.603558 
L 250.955042 79.644748 
L 252.958426 80.979119 
L 256.965194 83.852383 
L 258.968578 84.818558 
L 260.971962 85.117969 
L 262.975346 84.67557 
L 264.978731 83.623208 
L 268.985499 80.832902 
L 270.988883 79.628491 
L 272.992267 78.725725 
L 274.995651 78.112545 
L 276.999035 77.716294 
L 281.005804 77.254496 
L 291.022724 76.299186 
L 299.036261 75.304355 
L 329.087022 71.252465 
L 337.100559 70.575621 
L 345.114095 70.183116 
L 353.127632 70.047346 
L 365.147936 70.140795 
L 379.171625 70.235648 
L 387.185162 70.094345 
L 397.202082 69.67083 
L 415.232539 68.752501 
L 421.242692 68.674069 
L 427.252844 68.851384 
L 431.259612 69.149104 
L 435.266381 69.610948 
L 439.273149 70.248572 
L 443.279917 71.067336 
L 447.286685 72.065777 
L 451.293454 73.235332 
L 457.303606 75.274841 
L 461.8 76.984542 
L 461.8 76.984542 
" clip-path="url(#p280d6fdd93)" style="fill: none; stroke: #000000; stroke-opacity: 0.7; stroke-width: 0.75; stroke-linecap: square"/>
   </g>
   <g id="line2d_48">
    <path d="M 36.592941 60.377655 
L 44.606478 60.269528 
L 52.620014 59.947293 
L 60.633551 59.41945 
L 70.650471 58.502844 
L 82.670776 57.138137 
L 100.701233 55.071839 
L 108.714769 54.383585 
L 116.728306 53.95506 
L 122.738458 53.834447 
L 128.748611 53.893077 
L 136.762147 54.233333 
L 144.775684 54.82073 
L 156.795988 55.981878 
L 178.833214 58.167756 
L 212.890744 61.285036 
L 222.907664 62.521516 
L 246.948274 65.815253 
L 248.951658 66.18723 
L 250.955042 66.700271 
L 252.958426 67.437033 
L 254.96181 68.463869 
L 256.965194 69.780415 
L 260.971962 72.694214 
L 262.975346 73.738349 
L 264.978731 74.133828 
L 266.982115 73.769453 
L 268.985499 72.742278 
L 274.995651 68.435967 
L 276.999035 67.358016 
L 279.002419 66.567931 
L 281.005804 66.001602 
L 285.012572 65.221397 
L 299.036261 62.815639 
L 311.056565 60.729422 
L 317.066718 59.862781 
L 323.07687 59.185797 
L 329.087022 58.724758 
L 335.097175 58.480576 
L 341.107327 58.429669 
L 349.120864 58.583808 
L 371.158089 59.197888 
L 379.171625 59.12179 
L 387.185162 58.807874 
L 397.202082 58.16803 
L 411.225771 57.268307 
L 417.235924 57.077209 
L 423.246076 57.102685 
L 429.256228 57.399708 
L 435.266381 58.005868 
L 441.276533 58.938351 
L 447.286685 60.193032 
L 453.296838 61.745599 
L 459.30699 63.554398 
L 461.8 64.369027 
L 461.8 64.369027 
" clip-path="url(#p280d6fdd93)" style="fill: none; stroke: #000000; stroke-opacity: 0.7; stroke-width: 0.75; stroke-linecap: square"/>
   </g>
   <g id="line2d_49">
    <path d="M 68.103529 53.813551 
L 68.103529 41.472 
" clip-path="url(#p280d6fdd93)" style="fill: none; stroke: #000000; stroke-opacity: 0.9; stroke-linecap: square"/>
   </g>
   <g id="patch_3">
    <path d="M 57.6 307.584 
L 57.6 41.472 
" style="fill: none; stroke: #000000; stroke-width: 0.7; stroke-linejoin: miter; stroke-linecap: square"/>
   </g>
   <g id="patch_4">
    <path d="M 57.6 307.584 
L 414.72 307.584 
" style="fill: none; stroke: #000000; stroke-width: 0.7; stroke-linejoin: miter; stroke-linecap: square"/>
   </g>
   <g id="text_22">
    <!-- 20dB -->
    <g style="opacity: 0.7" transform="translate(70.204235 49.169494) scale(0.06 -0.06)">
     <defs>
      <path id="Helvetica-64" d="M 769 1634 
Q 769 1097 997 734 
Q 1225 372 1728 372 
Q 2119 372 2370 708 
Q 2622 1044 2622 1672 
Q 2622 2306 2362 2611 
Q 2103 2916 1722 2916 
Q 1297 2916 1033 2591 
Q 769 2266 769 1634 
z
M 1616 3406 
Q 2000 3406 2259 3244 
Q 2409 3150 2600 2916 
L 2600 4606 
L 3141 4606 
L 3141 0 
L 2634 0 
L 2634 466 
Q 2438 156 2169 18 
Q 1900 -119 1553 -119 
Q 994 -119 584 351 
Q 175 822 175 1603 
Q 175 2334 548 2870 
Q 922 3406 1616 3406 
z
" transform="scale(0.015625)"/>
      <path id="Helvetica-42" d="M 2213 2650 
Q 2606 2650 2825 2759 
Q 3169 2931 3169 3378 
Q 3169 3828 2803 3984 
Q 2597 4072 2191 4072 
L 1081 4072 
L 1081 2650 
L 2213 2650 
z
M 2422 531 
Q 2994 531 3238 863 
Q 3391 1072 3391 1369 
Q 3391 1869 2944 2050 
Q 2706 2147 2316 2147 
L 1081 2147 
L 1081 531 
L 2422 531 
z
M 472 4591 
L 2444 4591 
Q 3250 4591 3591 4109 
Q 3791 3825 3791 3453 
Q 3791 3019 3544 2741 
Q 3416 2594 3175 2472 
Q 3528 2338 3703 2169 
Q 4013 1869 4013 1341 
Q 4013 897 3734 538 
Q 3319 0 2413 0 
L 472 0 
L 472 4591 
z
" transform="scale(0.015625)"/>
     </defs>
     <use xlink:href="#Helvetica-32"/>
     <use xlink:href="#Helvetica-30" transform="translate(55.615234 0)"/>
     <use xlink:href="#Helvetica-64" transform="translate(111.230469 0)"/>
     <use xlink:href="#Helvetica-42" transform="translate(166.845703 0)"/>
    </g>
   </g>
   <g id="text_23">
    <!-- SK_notch_left -->
    <g transform="translate(198.8025 35.472) scale(0.12 -0.12)">
     <defs>
      <path id="Helvetica-53" d="M 894 1481 
Q 916 1091 1078 847 
Q 1388 391 2169 391 
Q 2519 391 2806 491 
Q 3363 684 3363 1184 
Q 3363 1559 3128 1719 
Q 2891 1875 2384 1991 
L 1763 2131 
Q 1153 2269 900 2434 
Q 463 2722 463 3294 
Q 463 3913 891 4309 
Q 1319 4706 2103 4706 
Q 2825 4706 3329 4357 
Q 3834 4009 3834 3244 
L 3250 3244 
Q 3203 3613 3050 3809 
Q 2766 4169 2084 4169 
Q 1534 4169 1293 3937 
Q 1053 3706 1053 3400 
Q 1053 3063 1334 2906 
Q 1519 2806 2169 2656 
L 2813 2509 
Q 3278 2403 3531 2219 
Q 3969 1897 3969 1284 
Q 3969 522 3414 194 
Q 2859 -134 2125 -134 
Q 1269 -134 784 303 
Q 300 738 309 1481 
L 894 1481 
z
M 2150 4716 
L 2150 4716 
z
" transform="scale(0.015625)"/>
      <path id="Helvetica-4b" d="M 488 4591 
L 1094 4591 
L 1094 2353 
L 3331 4591 
L 4191 4591 
L 2281 2741 
L 4244 0 
L 3434 0 
L 1828 2303 
L 1094 1600 
L 1094 0 
L 488 0 
L 488 4591 
z
" transform="scale(0.015625)"/>
      <path id="Helvetica-5f" d="M 0 -800 
L 0 -484 
L 3559 -484 
L 3559 -800 
L 0 -800 
z
" transform="scale(0.015625)"/>
      <path id="Helvetica-68" d="M 413 4606 
L 975 4606 
L 975 2894 
Q 1175 3147 1334 3250 
Q 1606 3428 2013 3428 
Q 2741 3428 3000 2919 
Q 3141 2641 3141 2147 
L 3141 0 
L 2563 0 
L 2563 2109 
Q 2563 2478 2469 2650 
Q 2316 2925 1894 2925 
Q 1544 2925 1259 2684 
Q 975 2444 975 1775 
L 975 0 
L 413 0 
L 413 4606 
z
" transform="scale(0.015625)"/>
      <path id="Helvetica-66" d="M 553 3856 
Q 566 4206 675 4369 
Q 872 4656 1434 4656 
Q 1488 4656 1544 4653 
Q 1600 4650 1672 4644 
L 1672 4131 
Q 1584 4138 1545 4139 
Q 1506 4141 1472 4141 
Q 1216 4141 1166 4008 
Q 1116 3875 1116 3331 
L 1672 3331 
L 1672 2888 
L 1109 2888 
L 1109 0 
L 553 0 
L 553 2888 
L 88 2888 
L 88 3331 
L 553 3331 
L 553 3856 
z
" transform="scale(0.015625)"/>
     </defs>
     <use xlink:href="#Helvetica-53"/>
     <use xlink:href="#Helvetica-4b" transform="translate(66.699219 0)"/>
     <use xlink:href="#Helvetica-5f" transform="translate(133.398438 0)"/>
     <use xlink:href="#Helvetica-6e" transform="translate(189.013672 0)"/>
     <use xlink:href="#Helvetica-6f" transform="translate(244.628906 0)"/>
     <use xlink:href="#Helvetica-74" transform="translate(300.244141 0)"/>
     <use xlink:href="#Helvetica-63" transform="translate(328.027344 0)"/>
     <use xlink:href="#Helvetica-68" transform="translate(378.027344 0)"/>
     <use xlink:href="#Helvetica-5f" transform="translate(433.642578 0)"/>
     <use xlink:href="#Helvetica-6c" transform="translate(489.257812 0)"/>
     <use xlink:href="#Helvetica-65" transform="translate(511.474609 0)"/>
     <use xlink:href="#Helvetica-66" transform="translate(567.089844 0)"/>
     <use xlink:href="#Helvetica-74" transform="translate(594.873047 0)"/>
    </g>
   </g>
  </g>
 </g>
 <defs>
  <clipPath id="p280d6fdd93">
   <rect x="57.6" y="41.472" width="357.12" height="266.112"/>
  </clipPath>
 </defs>
</svg>
